<?xml version="1.0" encoding="utf-8"?>
<!-- Generator: Adobe Illustrator 22.1.0, SVG Export Plug-In . SVG Version: 6.00 Build 0)  -->
<svg version="1.1" id="Layer_1" xmlns="http://www.w3.org/2000/svg" xmlns:xlink="http://www.w3.org/1999/xlink" x="0px" y="0px"
	 viewBox="0 0 1040.1 395" style="enable-background:new 0 0 1040.1 395;" xml:space="preserve">
<style type="text/css">
	.st0{fill:none;stroke:#000000;stroke-miterlimit:10;}
	.st1{fill:#323339;stroke:#000000;stroke-miterlimit:10;}
	.st2{fill:#FBF7EF;stroke:#000000;stroke-miterlimit:10;}
	.st3{fill:#E48D36;stroke:#000000;stroke-miterlimit:10;}
	.st4{fill:#45754C;stroke:#000000;stroke-miterlimit:10;}
	.st5{fill:#5E9E6A;stroke:#000000;stroke-miterlimit:10;}
	.st6{fill:#77C480;stroke:#000000;stroke-miterlimit:10;}
	.st7{fill:#8FCD95;stroke:#000000;stroke-miterlimit:10;}
	.st8{fill:#395B3D;stroke:#000000;stroke-miterlimit:10;}
	.st9{fill:#457547;stroke:#000000;stroke-miterlimit:10;}
</style>
<g id="Layer_12">
	<line class="st0" x1="0" y1="337.9" x2="1040.2" y2="337.9"/>
	<line class="st0" x1="0" y1="375" x2="1040.2" y2="375"/>
	<line class="st0" x1="0" y1="356.9" x2="1041.2" y2="356.9"/>
</g>
<g id="Layer_9">
	<g id="Layer_7">
		<polygon class="st1" points="1020.1,389.8 1000.5,344.2 840.5,344.2 665.2,341.7 637.2,374.2 623.1,389.8 		"/>
	</g>
	<path class="st2" d="M808.8,389.2l14.3-5.1l-15-4.5c0,0-3.1-1.1,2.4-2.5c5.5-1.4,16.8-4.2,16.8-4.2l-14.1-5.7c0,0,1.1,0,8.2-1.1
		c7.1-1.1,8.8-3,8.8-3l-13.4-4.3c0,0-5.7-1.6-1.1-1.9s14.6-3.7,13.7-3.7s-11.3-3.7-11.3-3.7s-1.8-1.3,3.4-2.2c5.1-0.9,11-2.9,11-2.9
		l-29.1-0.4c0.6,0,11.2,3.4,11.2,3.4s2.6,2.2,0,2.8c-2.6,0.6-13.8,2.4-13.8,2.4l8.7,3.6c0,0,4.6,1.8,3,2c-1.6,0.3-14.2,4.3-14.2,4.3
		s12,2.6,12,4.1c0,1.6-0.1,1-1.4,1.4c-1.3,0.4-14.4,4.1-14.4,4.1l11,4.9c0,0,1.3,1.8-0.7,2.5s-16.6,3.6-16.6,3.6l9.5,5.4l-1.9,1.1
		L808.8,389.2L808.8,389.2z"/>
	<path class="st2" d="M968.4,344.6l30.4-0.3c0,0-12,3.9-12.2,4.6c-0.2,0.7,0.2,1.5,0.2,1.5l16.1,3.4l-13.1,3.9c0,0-0.4,1.4,0.6,1.9
		c1.1,0.4,15.9,4.4,15.9,4.4l-11.6,4.1c0,0-1.1,0.9,1.8,2.2c2.9,1.3,16.1,4.6,16,4.6s-13.2,4.6-13.2,4.6s-3,1.5,0.8,2.2
		c3.8,0.7,15.9,4.3,15.9,4.3s-8.7,3.3-9,3.3c-0.3,0-13.1,0-13.1,0l-11.9-3.8l13.8-4.2c0,0,1.8-0.8-1.1-1.9
		c-2.9-1.1-17.6-4.7-17.6-4.7l15.2-5c0,0,1.2-1.6-0.4-1.8c-1.6-0.2-17-4.2-17-4.2l13.2-3.8c0,0,0.8-1.6-1.1-1.9
		c-1.9-0.4-15.7-3.7-15.7-3.7l12.7-3.8c0,0,0.7-1.8-1.6-1.7C979.9,348.7,968.4,344.6,968.4,344.6z"/>
	<path class="st2" d="M933.6,344.6l30.4-0.3c0,0-12,3.9-12.2,4.6c-0.2,0.7,0.2,1.5,0.2,1.5l16.1,3.4l-13.1,3.9c0,0-0.4,1.4,0.6,1.9
		c1.1,0.4,15.9,4.4,15.9,4.4L960,368c0,0-1.1,0.9,1.8,2.2c2.9,1.3,16.1,4.6,16,4.6s-13.2,4.6-13.2,4.6s-3,1.5,0.8,2.2
		c3.8,0.7,15.9,4.3,15.9,4.3s-8.7,3.3-9,3.3s-13.1,0-13.1,0l-11.9-3.8l13.8-4.2c0,0,1.8-0.8-1.1-1.9c-2.9-1.1-17.6-4.7-17.6-4.7
		l15.2-5c0,0,1.2-1.6-0.4-1.8c-1.6-0.2-17-4.2-17-4.2l13.2-3.8c0,0,0.8-1.6-1.1-1.9c-1.9-0.4-15.7-3.7-15.7-3.7l12.7-3.8
		c0,0,0.7-1.8-1.6-1.7C945.1,348.7,933.6,344.6,933.6,344.6z"/>
	<path class="st2" d="M931.7,344.4c0,0-12.4,4.1-12.6,4.6c-0.2,0.4-0.9,1.9,1.1,1.9c1.9-0.1,14.2,2.6,14.2,2.6l-14.3,4.1
		c0,0-1.5,1.1,1.6,1.9c3.1,0.7,14.8,4.1,14.8,4.1l-15.2,4.3c0,0-3.4,1.1,0.4,1.9c3.9,0.9,16,3.8,16,3.8l-14.9,5.4
		c0,0-2.7,0.4,0.8,1.6c3.5,1.1,16.6,3.7,16.6,3.7l-13.8,4.8l-10.3,0.4l-11.6-4.4l14.3-4.3c0,0,1.6-2-0.8-2.1
		c-2.4-0.1-13.4-4.6-13.4-4.6l13.1-4.1c0,0,1.9-1.7-0.8-2.5c-2.8-0.7-13.8-4.2-13.8-4.2l14.1-3.9c0,0,1.2-1.6-0.8-2
		c-2-0.4-13.9-2.9-13.9-2.9l13.4-3.6c0,0,0-1.1-2.5-1.7c-2.5-0.6-11.5-4.6-11.5-4.6L931.7,344.4L931.7,344.4z"/>
	<path class="st2" d="M899.9,344.4l-15,4.1c0,0-1.3,1.5,0.7,2c2,0.6,11.5,3.1,11.5,3.1l-12.6,3.7c0,0-2.5,1.1,0,1.8
		c2.5,0.7,15.4,4,15.4,4l-14.3,3.7c0,0-2.5,1.4-0.2,1.9c2.3,0.5,15.4,4.7,15.4,4.7l-15.7,4.4c0,0-1.5,1.1,1.5,2
		c2.9,0.9,14.3,5,14.3,5l-13.4,4.2h-7.7l-13.4-5l16.5-4c0,0,1.5-1.1-1.1-2.4c-2.6-1.1-15.3-4.7-15.3-4.7l16.1-4.2
		c0,0,2.6-0.9-2.6-2.1c-5.3-1.2-12.2-3.7-12.2-3.7l14.4-3.9c0,0,0.7-1.9-1.8-2.2c-2.5-0.3-11.6-3.3-11.6-3.3l13.9-3.1
		c0,0,0-2.2-2.9-2.4c-2.9-0.2-11-3.8-11-3.8H899.9z"/>
	<path class="st2" d="M864.8,344.4l-15,4.1c0,0-1.3,1.5,0.7,2c2,0.6,11.5,3.1,11.5,3.1l-12.6,3.7c0,0-2.5,1.1,0,1.8
		c2.5,0.7,15.4,4,15.4,4l-14.3,3.7c0,0-2.5,1.4-0.2,1.9c2.3,0.5,15.4,4.7,15.4,4.7l-15.7,4.4c0,0-1.5,1.1,1.5,2
		c2.9,0.9,14.3,5,14.3,5l-13.4,4.2h-7.7l-17.3-5l20.4-4c0,0,1.5-1.1-1.1-2.4c-2.6-1.1-15.3-4.7-15.3-4.7l16.1-4.2
		c0,0,2.6-0.9-2.6-2.1c-5.3-1.2-12.2-3.7-12.2-3.7l14.4-4c0,0,0.7-1.9-1.8-2.2c-2.5-0.3-11.6-3.3-11.6-3.3l13.9-3.1
		c0,0,0-2.2-2.9-2.4c-2.9-0.2-11-3.8-11-3.8L864.8,344.4L864.8,344.4z"/>
	<path class="st2" d="M670.1,342l9.2,3.4c0,0,2.5,1.4-1.2,2.1s-15.5,2.3-15.5,2.3l10.1,3.9c0,0,2.3,1.9-0.8,2.2s-16.7,0-16.7,0
		l11,7.5c0,0,0.7,0.2-2.5,1.2c-3.2,1.1-16.7,4-16.7,4l10.2,3.5c0,0,1.7,1.4-0.1,1.9c-1.8,0.5-19.1,5.1-19.1,5.1s10.2,4.2,9.7,5.1
		s-0.9,1.4-0.9,1.4l-8.8,2.1v1.4l18.3-0.5l-6.9-3.4c0,0-2.1-0.8,10.1-3.1c12.3-2.3,11.6-2.6,11.6-2.6L659,374c0,0-0.4-1.6,2.6-1.7
		c2.9-0.1,16.6-3,16.6-3s-9.5-4-9.7-4.3s-1.7-2.1,1.4-2.6c3.1-0.4,12.4-2.1,12.4-2.1l2.6-0.8c0,0-9.3-2.6-9.7-3.6
		c-0.4-1.1,0.1-2.3,1.4-1.9c1.3,0.4,15.7-3.4,15.7-3.4l-10.1-3.1c0,0-0.5-1.6,1-1.7c1.5-0.1,13.8-3.4,13.8-3.4L670.1,342z"/>
	<path class="st2" d="M700.9,342.4c0.6,0,11.2,3.4,11.2,3.4s2.6,2.2,0,2.8c-2.6,0.6-15.2,1.8-15.2,1.8l10.1,4.2c0,0-0.4,2.6-1.9,2.8
		c-1.6,0.2-15,1.6-15,1.6s10.1,3.4,10.1,4.9c0,1.6-1.3,1.2-2.6,1.8c-1.3,0.4-14.3,3.1-14.3,3.1l11,4.9c0,0,1.3,1.8-0.7,2.5
		c-2,0.7-18.1,4-18.1,4l11,5.1c-2.5,2.8-7.5,4.2-7.5,4.2h12.5c0,0-4.6-2.5-1.1-3.5s17.8-5.3,17.8-5.3l-11.5-4c0,0-3.1-1.1,2.4-2.5
		c5.5-1.4,16.8-4.2,16.8-4.2l-12.3-4c0,0-0.7-1.8,6.4-2.8c7.1-1.1,10.6-2.5,10.6-2.5l-10.8-4c0,0-1.3-1.6,3.4-1.9s14.6-2.8,13.7-2.8
		s-11.3-3.7-11.3-3.7s-1.8-1.3,3.4-2.2c5.1-0.9,11-2.9,11-2.9L700.9,342.4z"/>
	<path class="st2" d="M738.9,343.4c0.6,0,11.2,3.4,11.2,3.4s2.6,2.2,0,2.8s-15.2,1.8-15.2,1.8l10.1,4.2c0,0-0.4,2.6-1.9,2.8
		c-1.6,0.2-15,1.6-15,1.6s10.1,3.4,10.1,4.9c0,1.6-1.3,1.2-2.6,1.8s-14.3,3.1-14.3,3.1l11,4.9c0,0,1.3,1.8-0.7,2.5s-18.1,4-18.1,4
		l11,5.1c-2.5,2.8-7.5,3.3-7.5,3.3h12.5c0,0-4.6-1.5-1.1-2.6s17.8-5.3,17.8-5.3l-11.5-4c0,0-3.1-1.1,2.4-2.5
		c5.5-1.4,16.8-4.2,16.8-4.2l-12.3-4c0,0-0.7-1.8,6.4-2.8c7.1-1.1,10.6-2.5,10.6-2.5l-10.8-4c0,0-1.3-1.6,3.4-1.9s13.7-2.8,12.8-2.8
		s-10.4-3.7-10.4-3.7s-1.8-1.3,3.4-2.2c5.1-0.9,11-2.9,11-2.9L738.9,343.4z"/>
	<path class="st2" d="M771.1,343.8c0.6,0,11.2,3.4,11.2,3.4s2.6,2.2,0,2.8c-2.6,0.6-14.3,3.3-14.3,3.3l9.3,2.7c0,0,1.6,1.9,0,2.1
		c-1.6,0.3-12.5,2.3-12.5,2.3s10.1,3.4,10.1,4.9c0,1.6-1.3,1.2-2.6,1.8c-1.3,0.4-14.3,3.1-14.3,3.1l11,4.9c0,0,1.3,1.8-0.7,2.5
		s-18.1,4-18.1,4l11,5.1c-2.5,2.8-7.5,2.4-7.5,2.4h12.5c0,0-4.6-0.6-1.1-1.7S783,382,783,382l-11.5-4c0,0-3.1-1.1,2.4-2.5
		c5.5-1.4,16.8-4.2,16.8-4.2l-12.3-4c0,0-0.7-1.8,6.4-2.8c7.1-1.1,10.6-2.5,10.6-2.5l-10.8-4c0,0-5.7-1.6-1.1-1.9s15.1-3.7,14.2-3.7
		s-11.7-2.9-11.7-2.9s-1.8-1.3,3.4-2.2c5.1-0.9,11-2.9,11-2.9L771.1,343.8z"/>
</g>
<g id="Layer_5">
	<line class="st0" x1="0" y1="324.4" x2="1040.2" y2="324.4"/>
	<polygon class="st0" points="785.4,273.3 1040.2,273.3 1040.2,279.5 783.8,278 	"/>
	<polygon class="st0" points="833.4,258.6 1040.2,260.8 1040.2,273.3 785.4,273.3 791.5,258.6 	"/>
	<path class="st0" d="M820.5,278.1v62.4c0,0,2.4,1.8,4.1,0v-62.4H820.5z"/>
	<path class="st0" d="M824.7,327.4c0,0,2.4,1.8,4.7,0v-49.2h-4.7V327.4z"/>
	<line class="st0" x1="829.4" y1="285.9" x2="856.4" y2="278.1"/>
	<line class="st0" x1="829.4" y1="294.7" x2="868.5" y2="278.1"/>
	<line class="st0" x1="1016.9" y1="279.3" x2="1040.2" y2="287.9"/>
	<line class="st0" x1="1006.1" y1="279.2" x2="1040.2" y2="292.1"/>
</g>
<g id="Layer_4">
	<path class="st1" d="M923.1,210.2c0,0-25.7,3.8-22.6,6.4c3.1,2.6,14.6,4.9,27.7,4.4c13.1-0.5,30.7-3.2,30.7-3.2s4.4-2.4-5.6-4.9
		C943.3,210.6,923.1,210.2,923.1,210.2z"/>
	<path class="st1" d="M958.9,217.9c0,0-7.1,8.3-8.2,16.2c-1.1,7.9-2.9,17.8-2.9,20.3c0,2.5,0,5.3-1.1,7.3c-1.1,2-0.3,2.4-2.6,3.7
		s-28.8,5.5-34.1,0c-5.3-5.5-3.8-31.5-4.1-33c-0.3-1.5-0.2-6.4-2.6-7.9c-2.4-1.5-2.6-7.8-2.6-7.8S912.2,226,958.9,217.9z"/>
	<path class="st0" d="M837.3,213.3c1,0,35.5,2.2,44.8-1.8c0,0,2.9-4-12.2-5.6c0,0-27.9-4.3-32.7-1.1s-7.3-1-6.2,1.9
		C832.2,209.5,831.7,213.2,837.3,213.3z"/>
	<path class="st2" d="M881.1,208.8c0.1,0,9.9-0.6,9,1.4c-0.9,2-5.6,3.7-5.6,3.7s-35.2,5.8-45,1.8c-9.8-4.1-9.7-4-9.7-4l1.2-4.9
		C831.1,206.8,848.6,197.7,881.1,208.8z"/>
	<path class="st3" d="M890.1,210.2c0,0,5.6,34.1-9.4,44.7c0,0-12,10.3-29.4,9.5c-17.4-0.7-29.5-6.8-33.5-27.4l2.4-23.1l9.7-2.2
		c0,0,46.9,7.4,51.2-2.9C881.1,208.8,889.8,207.4,890.1,210.2z"/>
	<path class="st2" d="M922.2,213c0,0-16,4.3-14.3,4.1c1.6-0.2,17.5,1.1,23.6,0.6c6.2-0.4,20.3,0.4,19.1-1.1
		c-1.1-1.4-11.9-2.3-14.9-2.7C932.7,213.5,922.2,213,922.2,213z"/>
	<path class="st3" d="M977.4,218.7c0,0-23.4,1.9-12.3,5.6c11,3.7,46,1,46,1s10.1-2.7,1.5-5.1c-4.6-1.2-9.3-1.5-9.3-1.5l-4.9-0.2
		L977.4,218.7z"/>
	<path class="st2" d="M986.1,219.3c0,0-15.7-1.8-14.6,1s18.5,4.7,27.8,3.8c9.3-0.9,10.4-1.1,10.1-2c-0.3-1,4,0.7-0.2-1.1
		c-4.1-1.8-6.9-2.7-7.9-2.2c-1.1,0.5-2.8-0.2-2.8-0.2L986.1,219.3z"/>
	<path class="st3" d="M1016.1,223.5l-5,42.1l-1.2,5.4c0,0-11.5,6.4-38.5,3.6c0,0-10.1-48.9-9.2-52.4c0,0,1,2.4,5.5,3
		c4.5,0.6,36.6,0.7,37.2,0.7C1005.7,225.7,1014.7,225.9,1016.1,223.5z"/>
</g>
<g id="Layer_3">
	<path class="st0" d="M791.5,110.7c0,0,3.6,17.6,6.4,22.3c2.7,4.9,16.9,68.6,12.5,74.8l7.1,1.4c0,0-19.9-84.1-20.3-93.7
		C796.8,106.1,791.5,110.7,791.5,110.7z"/>
	<path class="st2" d="M854.1,211.6c0,0-17.8-57.4-102.1-83.2l-6.5,2.4C745.4,130.8,815.3,136.6,854.1,211.6z"/>
	<path class="st2" d="M843,208.8c0,0-51.4-11.9-66.9,12.3l-3.6-5.2c0,0,22.8-18.8,70.4-10L843,208.8L843,208.8z"/>
	<path class="st2" d="M781.1,215.4c0,0-12.4,32.1-6,41.1l-2.6,2.2c0,0-5.6-16.8,3.6-37.7s2.2-14,3.1-14S781.1,215.4,781.1,215.4z"/>
	<path class="st2" d="M841.3,224.4c0,0,1.7-19.5,4.7-14.8l2.2,2.6C848.1,212.3,845.4,207.1,841.3,224.4z"/>
	<path class="st2" d="M822.8,218.6c0,0,4.2-33.1,25.4-12.7v6.4c0,0-5.8-11.5-10.3-10.2C833.4,203.2,830.6,198.3,822.8,218.6z"/>
	<path class="st2" d="M785.3,164.6c-6.4-0.4-2.8-5.8-2.8-5.8s43.8,2.4,71.6,52.7l-3.4,0.7C850.7,212.3,830.2,167.7,785.3,164.6z"/>
	<path class="st2" d="M857.8,211.6c0,0,12.3-38.1,21.2-38.4v2.4c0,0-16.8,24.9-17.8,37.4L857.8,211.6z"/>
	<path class="st2" d="M871.6,92.8c0,0-21.1,82.6-20.3,112.1l1.8,4.1c0,0,14.5-109.4,21.4-116.2C881.6,85.9,871.6,92.8,871.6,92.8z"
		/>
	<path class="st2" d="M866.1,84.6c-0.1,0.2-28.8,92.3-18,127.6h2.6c0,0-9.9-49.9,19.3-126.4L866.1,84.6z"/>
	<path class="st2" d="M897.4,142.5c0,0.6,14.7,28.2,17,33.1c2.3,4.9,6.4,7.9,7.8,20.5c1.5,12.6,0,1.6,0,1.6s0.3,3.3,0.7,5.6
		c0.4,2.2-0.1,1.4,0,3.5c0.1,2.1,1,0.7,0.2,3.4c-0.8,2.6,0.4,5,0.4,5l-0.5,2.5c0,0,4.6,1,5.9-0.6c1.3-1.6,0-4.1,0-4.1l-0.6-4.1
		c0,0,0.9-5.1,0-5.6c-1-0.5-5.4-17.6-4.4-19.4c0.9-1.6,11-21.2,12.8-19.4c1.8,1.8-4.2-4.6-4.2-4.6s-7.1,13.7-8.7,17.2
		c-1.6,3.5-1.3,6.9-2.2,3.8c-0.9-3.1-5.8-12.1-5.8-12.1s-10.2-28.4-11-30.1c-0.8-1.7-4.2,0.1-4.8,0.5
		C899.4,139.8,897.4,142.5,897.4,142.5z"/>
</g>
<g id="Layer_11">
	<path class="st4" d="M986.1,222c0,0,33.1-55.3,47.2-103.4l7.9-22.7c0,0-2.2,14.7-6.9,30.8c-4.7,16.1-34.6,86.3-34.6,86.3
		s-1.6,3.4,0.4,6.3c2,2.8,3.1,2.7,3.1,2.7L986.1,222L986.1,222z"/>
	<path class="st4" d="M992.2,211.3c0,0-5.3-36.2-6.2-37.5c-0.3-0.4-1.3-3.3-3.4-6.8c-4.1-6.9-12-16.4-25.8-16.7l1.8,6.3
		c0,0,11.5-2.8,18.7,11.3c0,0,8.8,10.5,8.8,32.4V222L992.2,211.3z"/>
	<path class="st5" d="M991.5,206.3c0,0,1.7,0.5,7-11.1c5.3-11.6,17.5-42.3,18.1-46.1s4.1-23.4,3.1-28c-1.1-5.2-0.9-12.7,1.9,1.9
		s-8.6,47.6-8.6,47.6l-20.8,40.7L991.5,206.3z"/>
	<path class="st5" d="M982.6,167c0,0-22.9-44.8-38.1-53.6c0,0-4.9-4.2-6-4.9c-1.1-0.6-0.2-2.9,7.9,3.4c8.1,6.3,30,31.1,30,31.1
		s13.1,18.8,13.4,22.3c0.4,3.5,5.5,36.1,5.5,36.1l-3.9,4.9c0,0-4.2-30.1-5.4-32.5C984.9,171.3,982.6,167,982.6,167z"/>
	<path class="st6" d="M994.1,193.5c0.2,1.2,13.6-31,14.5-35.9c0.4-2.2,0.9-5.4,1.3-8.2c0.5-3.4,0.9-6.4,0.9-6.4s3.4-9.2,1.1,5.6
		c-2.3,14.7-4.9,26.1-4.9,26.1l-11.6,26.7L994.1,193.5z"/>
	<path class="st6" d="M978.8,146.6c0,0-9.8-27.9-8.2-25.2c3.7,6.1,9.3,18,10.8,22.7c1.5,4.7,10.1,21.2,11.5,27.5
		c1.3,6.4,2.4,19.7,2.4,19.7l-1.2,2.2c0,0-3.1-20.3-3.4-21.9C990.5,170,983.9,151.2,978.8,146.6z"/>
</g>
<g id="Layer_8">
	<path class="st5" d="M919,158.8c0,0,1.9,1.9,0,4.7c-1.9,2.8,0,6.4,0,6.4s3.1-1.5,3.4-2.6c0.2-1.1,2.8-5.2,2.8-5.2l1.8,3.1v4.7
		c0,0-3.4-2.1-4.4,0c-1.1,2.1,0,3.3,0,3.3l3.4,1.8l1.1,2.2l4.6-3.1c0,0,0.4,1.6,0-2.8c-0.4-4.4,0.2-5.9,0.2-5.9s1.1-4.4,2.5,0
		c1.3,4.4,1.1,2.6,1.1,2.6s4,3.6,4.4,0s1.1,0.6,0.4-3.6c-0.6-4.2-0.4-0.7-0.7-4.2c-0.3-3.5,1.1,1.3-0.2-3.5
		c-1.2-4.9-1.3-4.9-1.3-4.9s-0.7-0.9-4.6,1.3s-0.2,3.4-4,2.2c-3.8-1.1-2.5,2.6-3.7-1.1c-1.2-3.7-1.3-2.6-1.3-2.6l0.4-5.1h9l6.7-5.1
		c0,0,0.8-1.2,1.2-2.8c0.4-1.6,0.4-1.6,0.4-1.6s3.7-1.5,5.1-4.6c1.3-3.1,0-3.1,0-3.1l-3.3,1.4l-5.4,1.7c0,0-0.9,4.4-1.9,1.8
		c-1.1-2.6,3.4-8.8,1.1-5.7s-6.2,2.3-6.2,2.3h-3.9l-19.7,1.7c0,0,1.9-2.9-1.3-1.7c0,0-6.1-0.8-1.9,8.1c4.1,8.9,4.6,10.5,4.6,10.5
		s4.7,4.1,4.2,4.7c-0.4,0.5-2.6,0.2-1.3,1.6c1.3,1.4,1.3,1.4,1.3,1.4s2,0.9,2.2,2.6c0.2,1.8,0.2,1.8,0.2,1.8L919,158.8z"/>
	<path class="st7" d="M943.9,157c0,0-4.1,0.4,0,3.3c4.1,2.9,5.2,1.8,5.2,1.8s0.2,2,2.8,3.4c2.6,1.3,4.2,5.5,2.6,1.3
		c-1.6-4.1-1.6-4.2-1.6-4.2l-1.6-4.4l-2.9-1.1l-1-5.4l1-3.1l2.5-3.3c0,0,3.5-4.8,2.5-6.5c-1.1-1.8,3.4-7.8-1.1-1.9s-6.2,5.5-6.2,5.5
		l-5.9-0.9l-11.7-0.7l-12.3,5.7l6,10.4l10.1,3c0,0,7-8.5,9.3-5.7C943.9,157,943.9,157,943.9,157z"/>
	<path class="st8" d="M957.1,170l5.7,1.1c0,0,4.9,1.7,3.1-1.1c-1.8-2.7-2.8-4.7-2.8-4.7l0.9-2.5l5.3-4.1c0,0,4.4-1.6,5.3,0
		c0.9,1.6-1.1-3.9-1.1-3.9s-7.5-5.1-10.1-6.4s-3.1-2.6-2.2-4.1c0.9-1.5,2.8-3.1,2.8-3.1l5.5-1.6l3.1-1.1l-4.2-4.4H964h-2.6l-4.4-3.5
		l3.4-3.2l1.8-2l-3.5-3.3l-2.6-3c0,0-9.2-5.6-8.2-0.8c1,4.9,1,4.9,1,4.9l-2.5,0.1h-4c0,0,1.6,0.4-4.2,2.1c-5.8,1.8-4.6,0.7-4.6,0.7
		l-6.9,2.1l9.9,5.8l3.8,7.2c0,0,2.8,0.9-1,4s-3.8,2.2-5.1,4s-2.4,2-3.7,4c-1.3,1.9-1.3,1.9-1.3,1.9l-0.2,6.2c0,0,3.7-4.2,5.3-3.5
		s9.6-6.7,9.6-6.7l3.8,3.2v4.3l6.9,7.8L957.1,170z"/>
	<path class="st9" d="M904.6,138.9c-6.2-2-12.7,0-12.7,0s-2.1,5.7-8-2.1c-5.8-7.8-4.1-12.1-4.1-12.1s3.5,2.2,3.3-5.4s-4.4-1-0.2-7.6
		c4.2-6.6,0.2,2.2,4.2-6.6c4.1-8.8-4.1-5.3,1.7-6.6c5.7-1.3,5.9-4,5.9-4l4.5,8.8l13.2-13.6c0,0,6.4-2,3.4,3.7c-3.1,5.7,0,7.6,0,7.6
		h6.6c0,0,0,1.7-3.7,4.7s-6.9-1.7-3.7,3c3.2,4.7-3.2,4.6,3.2,4.7c6.4,0.1,9.3-7.7,6.3,0.1c-3.1,7.8-0.9,10.1-0.9,10.1
		s8.2,2.1,3.4,4.9c-4.9,2.9-4.9,2.9-4.9,2.9L904.6,138.9z"/>
</g>
<g id="Layer_2_1_">
	<path class="st5" d="M751.9,130.9v-9.1c0,0,6.8-10,6.8-11.2c0-1.1,0-5,0-5l-0.7-2c0,0-0.9-1.5-0.6-4.7v-2.4c0,0-0.9-0.6-2,1.6
		s-3.4,5.3-3.4,5.3s2.9-3.7,2.6-8.1c-0.3-4.4-1.1-4.9-1.1-4.9l-1.5,0.7l-1.3,3.4l-1.3,2.5l-0.6-2.5c-1.1-1.8-1.3-2-2.4-2.6
		c-1.1-0.6-0.9-0.7-0.7-1.5c0.2-0.7-1.1-1.3-1.1-1.3l-2.8-1.3c0,0-0.7,0.3-0.6,1.8c0.2,1.5,0,3.1,0,3.1s1.9-0.6,1.7,1.3
		s-1.5-1.1-0.3,1.9c1.1,3.1,0.9,4,0.9,4c-0.4,1.6,0,2.4,0,2.4l-0.2,1.6l-1.5-0.6c0,0-0.2,0.9-0.6-1.5s-0.4-2.4-0.4-2.4
		s0-3.3-1.1-2.4c-1.1,0.9-1.1,0.9-1.1,0.9l0,0c0,0-1.3-2.6-2.8-4.6s-2.5-2.2-2.5-2.2c-1.5,0.4-2.8,0.6-2.2,1.6
		c0.6,1,1.8,3.4,2.2,4.1c0.4,0.7,2.2,4.2,2.2,4.2l1.6,2.5l-2.5-0.9c0,0-0.9,0.4,1.5,2.5c2.4,2,5.9,5.5,5.9,5.5s0.4,1.1,0.4,1.9
		s0,1.1,0,1.6c0,0.4,0,1.1,0,1.1l-7.7-6.1c-1.9-1.7-3.3-1.1-2.9-1.7c0.3-0.6-1.5,1.7-1.5,1.7s-3.3-0.8-4.4-0.7
		c-1.1,0.2-2-0.2-2.4,0.7c-0.3,0.8,0,1.7,0,1.7s-0.4-1.1,2,0.2c2.5,1.3,4.9,2,4.9,2l2,2.4c1.9,1.8-0.9,2.9,1.1,2.4
		c1.9-0.6,2.8-0.7,2.8-0.7l2.2-0.3c0,0,0.6,0.4,1.1,1.8c0.4,1.3,3.5,3.5,2.4,4.1s-1.8,1.3-3.3-0.4c-1.5-1.8-1.8-2.4-2.4-1.5
		c-0.6,0.9-0.6,0.9-0.6,0.9s0.4,0.6-1.9-0.3c-2.4-0.9-2,2-3.8-1.1c-1.8-3.1-1.8-3.1-1.8-3.1s0.3-0.6-1.1,0.6
		c-1.3,1.1-1.1,0.2-1.3,1.1c-0.3,1.1-0.3,1.1-0.3,1.1s-11.6-0.6-12.2-1.1c-0.5-0.4-1.9-1.1-1.9-1.1c-1.5,1.8,1.6,2.6,2.9,3.4
		c1.3,0.7,5.9,1.1,6.2,2.5c0.3,1.3,1.8,0.7,2.2,0.6c0.4-0.2,0.9-0.2,1.3-0.4c0.4-0.3,2-0.2,2-0.2s1.5-0.9,1.8,0.6
		c0.3,1.5,1.3,1.1,1.3,1.1s0.4-0.4,1.6-0.7s2.4-0.3,2.4-0.3s1.2,1.6,1.7,0.9c0.5-0.7,0.5-0.7,0.5-0.7l0.9,0.4c0,0,0.3,1.6-0.7,2
		c-1.1,0.4-3.4-1.1-5.1,0c-1.8,1.1-2.9,1.5-2.9,1.5s-0.6-0.4-3.1,0.4c-2.5,0.9-0.6-2-4.1,0.6c-3.5,2.6-4.6,3.3-4.6,3.3
		s-4.2,0.4,1.1-0.6c5.3-1.1,8.8-0.9,8.8-0.9l1.9-0.4l2.4-0.2c0,0-0.2,0.3-2.6,1.5c-2.5,1.1-4.6,1.8-5.3,2.8s-2.6,2.6-2.6,2.6
		s-1.8,2-4,1.1c-2.2-0.9-3.4-0.9-3.4-0.9s-8.6-3.1-9.9-5.3s-2.6-1.9-2.6-1.9s-1.5-0.3-1.9-0.3s-0.4,2-1.8-0.2
		c-1.3-2.2-3.3-3.3-3.3-3.3l-1.1,0.3v3.5c0,0,1.8-0.4,2.9,1.1c1.1,1.6-0.3,2.2,1.1,2.9c1.5,0.7,4.9,0.7,4.9,0.7s5.6,1.5,4.2,2.2
		c-2,1.1-3.7,1.1-3.7,1.1l-1.9-1.7c0,0-5.3-0.7-6.4-2.2c-1.1-1.5-1.1,0.3-1.1,0.3l-1.8,2l1.1,1.5l2.2,0.1c0,0,2.5-0.3,2,0
		c-0.4,0.3-0.9,1-4.2,1.8c-3.4,0.8-4,1.6-4,1.6l2.2,1.5l4.7-1.8h3.3c0,0-1.6,1.1-1.1,2.4s1.8,1.9,1.8,1.9s1.6,1.1,2.5,1.6
		c0.9,0.5,1.9,0.9,1.9,0.9l2-0.7c0,0-0.4-0.7,0.4-2.4c0.9-1.7,3.1-3.4,2.9-0.3c-0.2,3.1-1.6,5.6-1.6,5.6l0.3,2.4l-0.9,1.9h2.2
		l1.9-1.5c0,0,2.2-2,3.3-3.8c1.1-1.8,2.8-4.1,2.8-4.1s1.5-2.5,2,0.3s1.1,4,1.1,4s-2.5,14.3,4.1,14.1c0,0,0.7-4.6,1.1-5
		c0.4-0.4-0.2-1.9-0.6-5.3c-0.4-3.4-1.9-7.5-0.6-7.9c1.3-0.4,1.1-5.3,2.9-2.6c0,0,0,5.9,0,8.4c0,2.5,0.4,4-0.7,4.6
		c-1.1,0.6-1.1,0.5-1.1,0.5l2,2.6l-1.3,1.3c0,0,1.8,1.1,1.5,4.2c-0.3,3.2,0.4,3.5,0.4,3.5s4.1,0.9,4.4-1.3c0.3-2.2,1.1-4,1.1-4
		s1.5-1.1,0.4-2.6c-1.1-1.5-0.6-1.5,0.3-1.8c0.9-0.3-0.9-11.9-0.7-14.3c0.2-2.4,0-5.3,1.6-4.6s2.8,0.2,3.3,0.3
		c0.4,0.2,1.1,1.6,0.2,3.3c-1.1,1.6-1.3,2.2-1.1,2.6c0.2,0.4-0.2-0.6,0.2,0.4c0.3,1.1,0.6,1.9,0.6,1.9s-0.3,0.7-0.7,1.3
		c-0.4,0.6-1.5,2.2-1.5,2.2l-0.2,3.8c0,0-1.3,0.7,0.2,2.8c1.5,2,1.1,4.4,1.1,4.4s-0.2,2.8,1.6,3.1c1.8,0.3,3.4,0.6,3.4,0.6
		s0-0.7-0.4-2s0.4-1.8,0.4-2.4c0-0.6,0.3-4-0.3-4.7c-0.6-0.7-1.9-0.2-0.6-0.7c1.3-0.6,1.3-0.6,1.3-0.6s-2.9-2-0.7-1.6
		c2.2,0.4,2.9,1.1,2.9,1.1s-0.3,0.2,0.3-2.4c0.6-2.5,0.6-4.2,0.6-4.2s-1.5,4.2-1.3,0.3s0-3.7,0.3-5.5c0.3-1.8,0-0.3,0.6-2.9
		c0.6-2.6,0.2-3.7,0.6-4.1c0.4-0.4,0-0.3,1.3,0.6c1.3,0.9,2.4,2.4,2.4,2.4s4.1,1.9,6,1.3c1.9-0.6,1.9-0.6,1.9-0.6s-1.5-3.3-1.9-3.5
		c-0.4-0.3-1.5-1.1-1.5-1.1s-1.6,0.7-1.5-0.6c0.1-1.3-1.1,1.1,0.2-1.3s1.3-2.4,1.3-2.4L751.9,130.9z"/>
	<path class="st5" d="M765.5,169l-3.1,2.9c0,0-2.6,0.7-7.1,2.5c-4.4,1.8-6.6,4-9,3.7s-2.2-0.4-5.1-1.3c-2.9-0.9-2.6-0.2-4.6-1.3
		c-1.9-1.1-3.5,1.6-3.4,2.6s0.9,1.1,5.7,2.6c4.9,1.6,8.4,3.4,10.3,2.6c2-0.7,2-0.7,2-0.7s-4.2,0.3-9.3,0.8s-8.8,1.9-8.8,1.9h-2.4
		c0,0,0,2.5,1.3,2.5c1.3,0,4.2,1.1,6.6,1.1s4,0.4,6.6,0c2.6-0.4,4.4-1.1,4.4-1.1s2.2-2.2-1.8,0.7s-4,2.8-4,2.8s-0.7,2.5-5.1,3.4
		c-4.4,0.9-6.4,1.6-6.4,1.6s-1.3-0.2-2.8,1.6c-1.5,1.8-3.7,4,6.6,4.4h3.4l-4,2.5l1.1,1.9l-0.9,2.6c0,0,4.6-2.6,2.8,0
		c-1.8,2.6-2.5,2.5-1.9,3.7c0.5,1.2,8.1-6.9,7.9-6.2c-0.2,0.7-0.7-0.2-1.1,4.4s0.2,5.5,1.1,6.4c0.9,0.9,3.5-11.9,4.2-13.1
		s1.9-3.5,1.9-2.6s1.1,1.1,0.7,5.7c-0.4,4.7,0.2,5.3-0.7,7.2s0,3.7,0,3.7s1.3,0,2.6-7.8c1.3-7.8,2.6-9.3,1.9-11
		c-0.7-1.8-0.2-2.8-0.2-2.8s6.6,1.8,7.2,4s2.8,1.8,2.8,1.8l-1.6-4.2c0,0-1.7-0.9-1.1-3.7c0.9-4.6,1.3-6.2,1.3-6.2
		c2.8,0.7,2.8,0.7,2.8,0.7v-2.1c0,0-1.8,2.2,0-3.4c1.8-5.6,2.6-6.9,2.6-6.9s2.2-4,2.8-4.4c0.6-0.4,12.8-7.9,12.8-7.9l-3.7-1.8
		c0,0-11.9,7.1-13.7,7.8C766.1,171.2,764.6,171.2,765.5,169z"/>
	<path class="st4" d="M775.2,256.5c0.2-1.6,0.7-5.5-4.6-7.2l-7.1-2.6c0,0,7.5-2.2,11.8,3.5l2.7,4.6l9-13.1v3.7c0,0,1.9-1.9,2.5-3.7
		c0.5-1.8,0,2.2,0,4s1.9,0.4,2.6-1.9c0.7-2.4,1.1,4.6,0,7.2c-1.1,2.6,2.5-2.5,3.1-2.1c0.7,0.4,1.9,2.6,0,4.5
		c-1.9,1.9,4.6,0.4,4.6,0.4s-1.3,2.8-6.4,5.3c-5,2.5-8.4,7.2-11.8,3.7s-4.1-4.6-7-3.1c-2.9,1.5-0.4,5.6,3.4,4.3c0,0,4.2-1.1,3.6,1.4
		c0,0-5.8,3.4-9.2,8.8c-3.4,5.5-47.5,11.3-48.3,12.8s-2.2,0.2-3.5,3.5c-1.3,3.4-2.5-1.6-1.3-3.5c1.1-1.9-2.2,0.2-3.1,0.9
		s-4,1.6-3.4-0.9c0.6-2.5,0-1.1,0-1.1s0.4,4.6-2.3,3.5s34.8-12.2,34.8-12.2s1.8-11.6,4.9-12.8c3.1-1.1,3.4,5.9,3.7,2.6
		c0.4-3.3-0.2-5.7-0.2-5.7s6.4,1.6,7.9,3.1c1.6,1.5,2.5-3.5-1.9-4.9l-2.9-1.3c0,0-1.3-3.1,1.8-2.2c3.1,0.9,4.9,0.9,5.7,1.9
		s1.1,1.6,2.2,2.6c1.1,1.1,5.5,2.8,4.9-1.3C770.9,255.2,775.2,256.5,775.2,256.5z"/>
	<path class="st6" d="M795.1,200.3c-1.3,0.3-0.9,2.4-3.8,0.7c-2.9-1.7-4.7-2.8-3.4-4.1c1.3-1.3,2.8,0.9,2.6-2.8s0.4-4.4-1.1-6
		s-3.8-1.9-4.1-1.6c-1.8,1.8-1.8,2.2-2.6,3.5c-0.9,1.3-2-4.7,1.1-5c3.1-0.3,4.8,0,4.8,0s1.1-2-1.9-2.5c-3.1-0.4-3.8,0-3.8,0
		s1.5-1.9-2-2.9c-3.5-1.1-3.3,0.4-4,0c-0.7-0.4-0.7-0.6-1.1-1.9c-0.4-1.3-1.1-2-1.1-2s-0.7,1.3-1.8,2c-1.1,0.7-2.6-1.2-2.6-1.2
		s-2.2-0.4-3.5,0.7c-1.3,1.1-4.1,0.8-1.6,3.3c2.5,2.5-0.4,3.2,1.6,5.3c2,2.2-0.2,1.9-0.2,1.9l0.6,2.5l-2.8-1.3l-1.1,8.8
		c0,0,1.6,3,2,4.1c0.4,1.1,0.5,2.6,0,1.9c-0.5-0.7-2.2,2-4.2-1.6c-2-3.7-5.6-4.3-5.6-4.3s0.3,1.9,1.7,4.6c1.4,2.8,1.7,2.9,2.6,3.5
		c0.9,0.6,4.1,1.6,4.4,1.9c0.3,0.3-3.4,1.1-5.1,0c-1.8-1.1-2.8-1.1-2.8-1.1s0.9,6.2,5.6,6.4l-7.3-0.6c0,0,0.4,4.7,2.7,5
		c0,0-0.6-0.4-2.7,1.1c-2,1.6-3.1,1.6-3.1,1.6s-1.8,0.3-2.2,0c-0.4-0.3,0,0.2,0,1.3c0,1.1-2.8,1.5-3.4,4c0,0,0.2,2.9,6,0l-1.1,2.8
		c0,0-2.4-1.1-3.8,0s-2.5,1.6-2.6,2c-0.2,0.4-0.2,0.4-0.2,0.4s3.3,5.3,7.7,2.9c0,0-0.7,2.4-1.9,4.4c-1.1,2-2.6,4.6-1.9,5.1
		c0.7,0.6,10.4-9,10.4-9s-4.4,4.7-5.6,7c-1.1,2.3-0.4,3.4,0.7,2c1.1-1.3,1.1-1.3,1.1-1.3s-0.4,2-1.8,4.6c-1.3,2.5-1.8,3.1-1.8,3.1
		s1.1,2,4.4-0.6c3.4-2.6,1.3-3.7,3.8-5c2.5-1.3,2.8-5.6,2.8-7.3s0-3.4,1.1-3.7c1.1-0.3,0.4-1.3,0-3.4s-2.6-8.2,0.6-4.4l0.9,4.1
		l-0.2,1.5l0.4,2.6l1.9-5.9c0,0,0-4.9,0.9-3.7c0.9,1.1,2.1,0,2.1,0s-1.6-3.3-1.1-4.6c0.5-1.3,1.5-4.1,1.8-2.2
		c0.3,1.9,0.9,5.3,0.9,5.3s1.1,4.6,1.8,4.4c0.6-0.2,1.8-1.9,1.8-1.9l2.5-2.8c0,0,1.1-1.5,1.1-3.5c0-2-0.2-0.6,0-2
		c0.2-1.5-2-3.4,0.2-1.5c2.2,1.9,2.2,1.9,2.2,1.9l1.5,3.1l1.1-3.1l1.6-1.6l0.7-2.4l1.5-2.6c0,0-1.1-2.6-0.6-1.3
		c0.6,1.3,0.2-1.1,0.2-1.1s-4.6-1.1,0.2-1.5c4.8-0.4,7.1-1.6,7.1-1.6l3.5-1.8l2.8-2.2L795.1,200.3z"/>
	<path class="st4" d="M828.8,207.3c-0.5,4-1.3,8.6-3.1,8.8c-0.9,0.1-1.6-0.9-3.7-3.4c-4.6-5.5-6.9-8.2-8.2-7.8
		c-1.3,0.4-2.2,3.3-1.6,5.5c0.7,2.6,3.3,4,2.9,4.6c-0.3,0.4-1.9-0.4-5.1-0.4c-1.1,0-2.5,0-2.6,0.4c-0.2,0.6,1.8,1.9,2.4,2.2
		c0,0,4.4,0.9,5,2.6s-1.8,0.3-3.8,1.3c-2,1.1-2.5,2-2.5,2l1.3,0.7c0,0,4.6-0.2,5.1,0.9c0.6,1.1,1.1,1.8,1.1,1.8s-3.5,1.5-4.9-0.6
		c0,0-1.9,3.4,3.7,3.8c0,0,4.4-2.4,4.1,0c-0.3,2.4-0.7,3.3-0.7,3.3s0.2,0.7-1.9,0.7c-2,0-2-4.1-2,0c0,4.1-2.4,5,0.9,5.1
		c3.3,0.2,4.4-0.7,4.4-0.7s-1.6,3.4,0.9,3.2c2.5-0.2,2.6-0.6,2.8,1c0.2,1.6,1.9,2,2.8,0c0.9-2,4.1-0.3,2.9-2.2
		c-1.1-1.9-2.9-4.1-1.1-2.8c1.9,1.3,1.5,2.6,3.8,0.7c2.4-1.9,4-1.9,2.9-4.2c-1.1-2.4-1.1-3.4-1.1-3.4s1.3,0.7-1.8-1.1
		c-3.1-1.9-5.7-1.9-3.1-1.9c2.6,0,3.4,2.5,5.3,1.1c1.9-1.3,1.9-1.3,1.9-1.3s0.2,0.3,0-2.4c-0.2-2.6-1.1-2.4-0.2-2.6
		c0.9-0.3,0.6,0.7,2.6-1.1c2-1.8,2.6-2.5,2.6-2.5s4-2.6,1.1-2.2c-2.9,0.4-3.3,0.2-3.8,0.2s-1.9-0.2-1.9-0.2s6.4-1.3,6.8-1.3
		c0.4,0-1-2.6-2.8-2.1h-1.9l-3.7,1.4c0,0,5.8-6.6,4.7-6.9c-2.6-0.7-5.1-1.5-6.8,0.7c-1.6,2.2-2.5,4.1-2.6,3.5
		C829.9,211.7,829,205.8,828.8,207.3z"/>
	<path class="st7" d="M818.2,128.4c-1.3-0.2,0.3,2-3.8,2.6c-4.1,0.6-2-2.9-5,0s-3.1,1.1-3.1,1.1s0.9-6-0.6-2.5
		c-1.5,3.5,0.9,1.9-1.5,3.5c-2.4,1.6-2.4,1.6-2.4,1.6s-3.1,6-6.9,7.5c-3.8,1.5-16.1,2-18.7,3.7c-2.6,1.6-14.6,6.8-17.6,9
		c-3.1,2.2-5.9,2-9,2.9s-10.1,1.1-8.1,2.5c2,1.5,4.1,0.2,2.8,1.9C743,164,743,164,743,164s-1.8,1.3,2.5,0c4.2-1.3,7.3-6.6,6.8-2
		c-0.6,4.6-1.5,4.7,1.5,5.3c2.9,0.6,1.1,1.6,4.9-0.7c3.8-2.4,3.1-4.9,5.5-3.6s2.4,1.9,2.4,1.9l-0.9,1.9c2.6,0.4,1.8,0.3,4.1-0.9
		c2.4-1.1,4.1-4.2,2.4-1.1c-1.8,3.1-0.4,1.8-0.4,1.8s-1.7,3.1,1,4.7c2.6,1.6,5.1,2,5.1,2l4.7-0.6l-1.9-1.3c0,0-0.9-1.2,0.7-4.2
		c1.5-3,1.5-3,1.5-3l2.5,4.4c0,0,1.1,0.3,1.1,1.3s0.7-0.4,2-1.6s0.2-0.4,2.6-1.8c2.5-1.3,1.3,1.8,2.5-1.3s0,0,0,0l1.1-3.1
		c0,0,0.7-4.4-1.8-6.6c-2.5-2.2-2.5-2.2-2.5-2.2l-1.5-3.4l2.8-1.9l4.1,1.1l2.6-1.1l2.8-1.1c0,0,0.2-0.7,1.6-1.3
		c1.5-0.6-0.7-0.7,1.5-0.6c2.2,0.2,2.4-0.7,2.4-0.7s-0.9-3.8,2-2.9c2.9,0.9,4.6-0.6,4.6-0.6s3.7,0.2,1.9-1.6s-0.9-4.1,1.6-4.2
		c2.5-0.2,6.8-1.3,6.8-1.3l5.5-1.8c0,0-2.6-0.6-6.6,0c-4,0.6,7.8-3.7,2.2-2c-5.6,1.6,3.7-6.2-1.5-2.5c-5.1,3.7,2.4-3.4-1.3-1
		C818.2,128.4,818.2,128.4,818.2,128.4z"/>
	<path class="st4" d="M794,141.9c0,0-6.2-8.2-1.3-13.5c0.6-0.6,1.1-1.2,1.6-1.8c3.4-3.6,4.1-4,4.1-4l2.8-0.6l4.1,1.1
		c0,0,0.9-3.7-3.5-4.1s4.2-3.5,5.1-4.9c0.9-1.3,3.4-3.1-0.9-2c-4.2,1.1,2.4-1.5,2.4-1.5s5.4-2,1.9-1.3c-3.5,0.7-7.4,1.3-9.2-1.1
		c-1.8-2.4,0.4-0.2-3.1,0s-3.7-0.2-3.8,1.9c-0.2,2-5.5-4-6.4-7.2c-1.1-3.3-1.1-3.3-1.1-3.3s-1.5,6.8-0.9,11.7c0.6,5,0.6,3.3-1.9,1.8
		c-2.5-1.5,0-1.1-3.3-1.1s-2.8,0.7-4.7-2c-1.9-2.8-2.4-3.5-2.2-1.9c0.2,1.6,0.3,4.9,5.1,6.6c4.9,1.8,5.1,2.5,5.1,2.5s4.9,0,0.4,1.9
		C780,121,780,121,780,121s3.7,1.3-0.2,0.9c-3.8-0.4-7.5-4.7-4.7,0c2.8,4.7,3.7,5.2,3.7,6.4s0.3,2.2,0.3,2.2s2.4,2.9-2.4,1.1
		c-4.7-1.8-5.2-2.6-5.2-2.6l-1.6-0.7c0,0-0.7,0.7-4.9,0c-4.1-0.7-7.3-0.6-8.5-2.8s-3.2-4.9-2.3-2c0.9,2.8,0.3,5,2.3,5.7
		c2,0.7-0.6,0,2,0.7s-5.6-2,0,0c5.6,2,5.6,2,5.6,2l0.7,0.7c0,0,6,1.3,1.1,1.5c-5,0.2,5.7,0.2-1.3,0.2c-7.1,0-6.2-0.2-6.2-0.2
		s-10.3-0.6-6.4,0.7s5.5,1.9,5.5,1.9s2.4-1.1,3.8-1.1c1.5,0,1.5,0,1.5,0s4.7-0.2,4.4,1.3s-1.8,2-1.8,2s-1.6,1.6-5.9,1.6
		c-4.2,0-3,0-3,0s-10.9,0.4-13.3-0.6c-2.4-1.1-1.1,3.3,1.6,3.3c0.7,0,1.2,0.1,1.6,0.1c1.1,0.3,0.9,0.8-1.8,1.2
		c-3.5,0.6-3.8,1.6-3.8,1.6s15.5-5,19.8-1.3c4.2,3.7,5.5,3.5,6,4.2c0.5,0.7,2.2,0,2.2,0s8-4,8.6-4.1s8.4-1.4,8.4-1.4l1.4-0.2
		L794,141.9z"/>
	<path class="st2" d="M801.9,134.7v-6.4c0,0-1.3-0.2-2.6,3.2c-1.3,3.4-0.7,0.6-1.1-1.9c-0.4-2.5-0.2-4.1-1.8-2.9
		c-1.6,1.1-2.4-1.3-1.6,1.1c0.7,2.5,1.8,2.5,0.9,4.6c-0.9,2-0.9,2.8-1.9,0.6c-1.1-2.2-0.9-3.4-1.8-2.6s-1.1,2.8-1.1,2.8
		s1.6,7.3,3.2,8.6C795.6,143.1,801.9,134.7,801.9,134.7z"/>
	<path class="st2" d="M775.1,112.1c0,0-1.9,5.3-3.4,2.4c-1.6-2.9-2.3-6.6-2.5-4.6c-0.2,2-2.5,3.1,0,3.8c2.5,0.7,0.7,0.9-2,1.6
		c-2.8,0.7-2.5,0,2.4,1.8c4.9,1.8,5.7,0.4,2.1,1.8c-3.6,1.3-7.4,2.4-3.9,2.2s7.3,2.5,7.3,2.5s-0.9-4-0.5-3.8
		c0.4,0.2,4.4,1.9,4.4,1.9l6.3-2.8c0,0,3.2-0.9,1.1-1.2c-2.1-0.4-3-0.1-6.4-1.1C776.6,115.3,775.1,112.1,775.1,112.1z"/>
	<path class="st5" d="M821.1,178.4c0.3-0.6,4-0.7,3.3-7.5c-0.7-6.8-1.6-9.7-1.6-9.7s-0.3-4,1.7-3.3s4.9-1.6,6.3-1.1
		c1.3,0.4,5.5,0,5.9-1.1c0.4-1.1,0.6-2.5,0.9-3.3c0.3-0.7,1.5-5.7-1.1-2.9c-2.6,2.8-3.8,3.3-3.7,1.8c0.2-1.5,2.8-6.8,0.9-4.4
		s-1.8-1.8-2.6,0.6c-0.9,2.4,0.2-1.8-1.3,0s0.4,0.7-1.8,0.3c-2.2-0.4-3.1-0.7-2.5-3.8s4.6-3.5,0-4.7s-3.3-1.3-5.5,0
		c-2.2,1.3-3.1,0.2-1.9-1s3.5-3.4,1.1-1.1s-3.3,2.9-3.3,2.9s-0.9-0.9,0,2s4.5,8.1,0.3,3.7c-4.1-4.4-5.3-5-5.3-5s-1.1-1.1,0,1.3
		c1.1,2.4,7.8,3.7,0.8,3.3c-7.1-0.4-9.6-2.4-7.1-0.4c2.5,1.9,0.6-3.1,2.5,1.9c1.9,5,3.4,4.2,1.9,5c-1.5,0.7,1.8,4.7-3.3,0
		c-5-4.7-5.7-4.4-5.7-4.4s-1.9,1.2,0,2c1.9,0.7-4-0.4-4-0.4c1.3,2.9-1.6,0-1.3,1.9s0.6,2.6,0.6,2.6c-3.4-0.9-4.7-1.5-1.8,1.1
		c2.9,2.5,4.4,4,4.4,4s-2.9,0.5-3,2.9s-0.8,2.6-0.8,4.4c0,1.8,0,2.6,0,2.6s1.9-1.6-1.6,2.4s-6.6,4.4-5.9,7.5c0.7,3.1,0.4,3.7,3.1,2
		c2.6-1.6,2.6-1.6,2.6-1.6l1.6-0.7l2.6,0.2c0,0,8.5-3.1,1.8,0.4c-6.8,3.5-9.6,4.9-9.6,4.9s-3.6,4.9,4.9,0.8c0,0-4.7,3.5-1.8,3.3
		c2.9-0.3,7.9-7.5,8.2-7.1c0.3,0.4,0.9,0.6-2.2,3.7s-6.6,3.5-6.9,5.7s2.3,5,2.3,5s0.9-6.6,1.3-2s1.3,3.4,0.4,4.6s-0.9,1.1-0.9,1.1
		s0.9-0.2,3.5,0c2.6,0.2,3.1,0.3,4.4-1.1c1.3-1.3,2-3.5,3.7-4c1.6-0.4,2.4-1.1,2.5,0.4c0.2,1.5,1.1,1.6,2.4,0.4
		c1.3-1.1,1.1-2.2,1.1-2.2s-2.1-5.1,2-1.6c0,0,1.5,0,1.6,0s-0.6-2.6-0.6-2.6l0.2-2.6c0,0-2-6,0.3-4.1c2.4,1.9,2.9,2.9,3.7,2
		c0.8-0.9,0.6,1.1,0.7-0.9c0.2-1.9,0.2-1.9,0.2-1.9L821.1,178.4z"/>
	<path class="st5" d="M830.9,238.5c-0.4,0.3,1.9-0.6,2.8,0.7c1,1.3,3.2,0,0.4,2.1s-5.4,3-7.1,5.3c-1.8,2.3-1.2,3.5-1.8,4.3
		c-0.5,0.8-0.5,0.8-0.5,0.8s0.8,0.2,2.5-0.8c1.7-1,2.6-2.3,3-0.1s2.6,0.9,2.6,0.9s-0.4-0.4,1.9-3.2s4.6-6.7,2.8-3.2
		c-1.8,3.5-2.3,4.9-2.2,5.8c0.1,1-2.3,2.6,0.4,1.6c2.6-1.1,3.4,0.2,3.6-0.7s-0.2-0.6,0.9-1.6c1.1-1,2.1-3.7,1.8-0.7
		c-0.4,3-1.5,2.2,1.3,2.6s3.4,0.8,3.4,0.8h4.1l1.2-1.9c0,0,2.6,0.7,0-1.3c-2.6-2-3.7-1.9-2.3-3.4c1.4-1.5,1.8,0,0.4-1.9
		s-4.6-4.4-0.7-3.1c4,1.3,4.4,1.3,5.1,1.4c0.7,0.1,0.7,4,1.6-0.7c0.9-4.7,1.9-4.9,0.8-5.2c-0.8-0.3-5.8-3.4-8.6-5.3
		c-1.1-0.7-1.9-1.2-1.9-1.2s-1.7-1.3,1.1,0s1,3.4,2.7,1.3c1.8-2,3.6,2.3,1.9-1c-1.8-3.3,3.1-3.1-3.2-4.5s-7.8-1.9-7.8-1.9
		s-0.7,0.7-1-0.4c-0.3-1.1-0.2-1.1-0.2-1.1s-0.4-0.8-1.2-1c-0.8-0.3-3.3-1.8-1.9,0.4c1.3,2.2-0.7,2.6-0.7,2.6l0.1,1.7
		c0,0,1.8,0.4,0.5,1.9c-1.2,1.5-2.5,0.9-1.9,2.2c0.5,1.3,0.8,3,0.8,3c-0.4,1.9-1.1,2.7-1.1,2.7L830.9,238.5z"/>
	<path class="st6" d="M877.9,156.7c0.4-0.4,21.3-13.6,22.2-17.1c0.9-3.5,0-2.7,0-2.7s2.6-0.2-3.6,3.4c-6.2,3.5-15.2,10.1-15.2,10.1
		s-4,3.2-6.3,5.2c-2.3,2-4.2,2.1-4.9,4.6c-0.6,2.5-1.7,2.2-2.7,2.1c-1.1-0.1-1.6,1.8-2.7-1.3s-1.6-6.5,0-8.5
		c1.6-1.9,0.2-0.8-4.5-5.1s-6.1-3.4-7.2-5.3s-1.9-2.3-1.9-2.3s0.9,0.5,0.7,0.4c-0.3-0.1-0.3-0.1-0.3-0.1s-0.4-7.2,0,0
		s2.2,7.2,0.4,7.2c-1.8,0,1.4,3.4-2.2-0.8c-3.6-4.1-4.5-4.5-5.3-4.9c-0.8-0.4-3.1-3-1.9-0.7c1.1,2.3,1.9,4.1,1.9,4.1
		s2.6,2.7,3.4,4.4s1.9,0.8,0.8,1.7c-1.1,0.9,0.2,1.8-3,0.1c-3.2-1.7-4.1-1.8-4.1-1.8s-8.4-0.9,5.3,4.2c0,0,4,0.8,3.1,2.8
		s-8.5,0-9.9,2.1c0,0-2.7,1.1,3.2,0.9s11.3-1.3,12.8,2.6c0,0,2.1,1-1.1,0.7c-3.2-0.3-5.1-2.2-7-2.2s-3.2,0.2-2.3,0.9
		s2.2,0.8,2.3,1.4c0.1,0.6,1,0.3-1.4,0c-2.5-0.3-4.8-0.3-6.1,0.4c-1.3,0.6-1.3,0.6-1.3,0.6s-1.3,1.3-1.6,1.8c-0.3,0.4,1,0,1,0
		s-3.1,0.5,1.7,0.2c4.8-0.3,6.9-2.6,7.1,0.1c0.2,2.6,0.1,3.3,0.1,3.3s-1.3,1.8,1.6,0c2.9-1.8,4.5-3.1,5.7-3.4
		c1.2-0.3,2.5-0.5,2.5-0.5s0.4-1.4,1,0s3.2-0.4,0.5,1.4c-2.6,1.8-2.5,2-4.8,3.2s-11.4,6.7-10.1,9.9c1.3,3.2,0.5,0.9,2.2,0.5
		s1.3-0.1,2.8-2.2c1.5-2.1,0-1.9,2.1-2.8s1.9,0.4,3.6-1.2s9.9-10.9,4.5-4.1s-7.2,8.8-7.2,8.8s-1.2,0.8-1.9,1.3
		c-0.6,0.5-6.5,0.8-2.6,1.3s5.1,0,5.1,0l1.1-1.2l6.1-6.9l1.3-1.6c0,0,7.6-9,3-2.6c-4.6,6.4-6,9.3-6,9.3s-0.5-0.7-2.3,3.3
		c-1.8,4-2.2,5.3-2.2,5.3s1.4-0.5,2.3,1.2s-0.1,9.7,2.5,3.6c2.6-6.1,3.6-6.4,3.7-8.1c0.1-1.8,7.8-12.9,7.8-12.9s1.2-7.6,1.1-3.2
		c-0.1,4.5,0,5.8,0,5.8s-3.3-1.9-1.7,4.6c1.6,6.4,3.1,6.6,3.1,6.6l1.1-0.4l0.9-1.7c0,0-1.4-1.1,0.2-2.6c1.6-1.6,0.2-1.2,0.2-1.2
		s-2.5-9.9,0.5-2.6c3,7.3,2.6,4.6,3,6.9c0.4,2.3-3.4,2.2,0.4,2.2s4.3-1.3,6.5-2.6c2.2-1.3,3.4-1.2,3.4-1.2s-0.4-0.2,0.7-1.8
		s-3.4-0.5,1.1-1.6s4.4-3,4.4-3s-0.8-1.8-1.6-4.3c-0.8-2.6-5.7-4.2-2.3-3.2s5.4,1.9,6.7,1.9c1.3,0.1,0.9,1,3.3,0.5
		c2.4-0.4,5.3,0,1.8-3.2c-3.5-3.2-2.8-4.4-6.1-4.5c-3.3-0.1-1.7,0.4-6.3,1.1c-4.6,0.7-3.4-1-3.4-1s13.1-3,15.7-6.6s5.6-4.3,1.6-3.5
		s6.1-1.6-3.4,1.2c-9.4,2.8-13.9,5.3-13.9,5.3l-2.7,0.8l-2.3,0.1c0,0,1.9-1.4,7.2-4.9c5.3-3.5,5.3-2.5,8.1-5.2
		c2.8-2.7,7.1-4.5,3.5-3.5c-3.6,1-0.9-2.2-4.3,0.1c-3.4,2.3,0,0.2-2.6,1.9c-2.6,1.8,0.4,0.5-5.1,2.8c-5.5,2.3-4.6,3.7-7.1,5.1
		C878.8,157.1,877.9,156.7,877.9,156.7z"/>
	<path class="st5" d="M839.3,121c0.2-0.7,17.8-16.6,17.2-15.4c-0.6,1.1-0.4-3-4.2-0.1c-3.8,2.9-4.6,1.6-6.6,4.7
		c-2,3.1,1.1,0.2,1.9-3.1c0.9-3.3,1.9-6.9,4.6-9.3c2.6-2.4,7.2-4.6,3.1-3.7c-4.1,0.9-3.1,4.1-3.7-0.2c-0.6-4.2-0.7-4.2-0.7-4.2
		s0.9-1.8-1.1,0c-1.9,1.8-1.6-1.8-4.2,2.8s2.5-3.6,2.5-3.6l2.6-3c0,0,1.8-0.2,3.4-3.1s4.2-7.8,0.9-4.4c-3.4,3.4-2.2,1.9-2.5,0.7
		c-0.3-1.2,0.4-3.4,0.4-3.4c-2.8,1.6,3.4-6.4-3.4,0c-6.7,6.4-6.6,6.4-7.2,7.8c-0.6,1.4-1.3,2.6-0.7,1.3c0.6-1.3-0.7-5.5-4.4-9.5
		c-3.7-4.1-3.7-9.5-3.7-4c0,5.6,0.7,4.2,1.1,6.4c0.4,2.2-3.1,0.7-1.1,2.5c2,1.8,2.6-0.4,1.9,1.8c-0.7,2.2,3.1,6.2-0.7,2.2
		c-3.8-4-4.4-6.6-6.9-9.3c-2.5-2.6-1.8-4.9-2.5-2.6c-0.7,2.2-0.4,3.1,0,4.9c0.4,1.8-4.1,0.9-0.4,4s2.6,0.7,3.7,3.1
		c1.1,2.4,2.5,3.1,3.1,4.4c0.6,1.3-0.4-0.9,0.7,1.3s1.1,2.2,1.1,2.2s-0.2,2.6-0.4,2.9c-0.3,0.4,8.4,5-0.2,0.4s-16.6-12.2-16.6-12.2
		s16.1,13.5,16.9,16.5c0.9,2.9,5.3,4.5,0.9,2.9c-4.4-1.6-4.4-1.6-4.4-1.6s-4.9-3.4-7.5-6.1c-2.6-2.6-6-6.7-6-6.7
		c-2.2-1.8-2.8-2.8,0,1.9c2.8,4.8,5.5,4,2.8,4.9c-2.6,0.9-2.6,0.9-2.6,0.9s-0.7-0.2,2.6,1.6c3.4,1.8,2.8-0.9,3.4,1.8
		c0.5,2.6-1.9-0.9,0.4,2.6s6.9,4.1,5.9,7.2c-1.1,3.1,0.1,4.9-2.1,2.9c-2.2-1.9-6.2-11.4-10.4-12.4s-4.6-0.8-4.5-2.6
		c0.1-1.8,1.7,5.3,1.7,5.3s-0.2,1.8,4.2,4.6c4.4,2.8,4.9,3.7,6,4.4c1.1,0.7,4,2.5,2.6,2.6s-7.9-2.2-10.8-4.9s-5.7-4.1-6-3.3
		s2.6,4,3.7,5.1c1.1,1.1,3.5,1.8,4.2,3.1c0.7,1.3-2.8,0.6-3.5,2.3c-0.7,1.7-1.8,0.1,2.5,0c4.2-0.1,9.3,2.1,11,2.8
		c1.8,0.7,1.8,0.7,1.8,0.7s3.5,1.3,5.3,2.2S839.3,121,839.3,121z"/>
	<path class="st2" d="M845,140.6c-1.9,0.2-4.6-1.5-3.5-3.8c1.1-2.4,0.4-8.1,3.5-5.2c3.1,2.9,2.6,0.5,4.4,4.6c1.9,4-0.9,5.1,0,6.3
		c0.9,1.1,1.7-1.9,0.9,1.1c-0.8,3-0.7,3.1-0.7,3.1L845,140.6z"/>
	<path class="st6" d="M871.6,129.4c-0.1-0.9,3.9-11.5,9.2-12.5c5.3-1.1,6.4-1.6,10.1-2.6c3.8-1.1,4.9-1.3,4.9-1.3s1.9-0.2,6.9,0
		s10.6,1.6,15-0.1c4.4-1.7,5.3-1,6.4-1.9c1.1-0.9,2.2-3.7,0-3.1c-2.2,0.6,13.2-8.8,9.7-6.9s-16.9,9.5-15.7,7.5
		c1.2-2,5.7-4.1,7.2-7.8c1.6-3.7,0.2-4.1-0.4-3.4c-0.6,0.7,1.1-0.2-1.3,1.8s-10.8,6.9-12.3,7.5c-1.6,0.6,7.8-7.3,8.8-9.5
		s2.2-4.3,1.1-2.2c-1.1,2.1-1.6-0.2-6.4,2.2c-4.8,2.4-6,4.9-6.9,4.9s-0.9-5.1-3.4-1.3c-2.5,3.8-4.2,5.7-5.3,7.1
		c-1.1,1.3-2.5,3.5-2.8,1.8c-0.4-1.8-1.6-1.9,0.9-5.1c2.5-3.2,7.1-8.6,7.1-8.6c-4.2,5.1-7.9,3.3-10.1,6.1c-2.2,2.8-2.5,2.5-3.4,4
		c-0.9,1.5-4.4,4-2.2,1.9c2.2-2,0.4-3.4,1.1-6c0.1-0.4,0.3-1,0.5-1.5c1.1-2.6,2.8-5.8,1.7-4.6c-1.3,1.5-5.1,12.7-4.9,8.6
		c0.3-4.1,0.9-12.8-0.2-7.5c-1.1,5.3-1.8,6.9-2.2,7.5s-2.5-0.4-2.5-0.4v-1.9c0,0-1.8-0.7-2.6,1.3c-0.9,2,0.2,3.1-0.9,1.9
		c-1.1-1.1-1.9-1.6-1.9-3.1c0-1.5,0-1.6,0-1.6s-0.4-0.4-1.3-0.4c-0.9,0-0.7-1.3-0.7-2.6c0-1.3,0-2.6,0-2.6s0,0.9-0.2-1.9
		c-0.2-2.8-0.2-7.8-0.2-7.8c0,4.9-3.7,9.7-4.2,8.8c-0.5-0.9,0-5.7,0-5.7s-0.4-4.4-0.2-2.2c0.2,2.2-1.8,3.1-2.2,4.6
		c-0.4,1.5-1.9,0-1.9-1.9s1.6-12.5,0-1.9s-1.3,12.8-1.3,12.8c-3.1-4.2-1.3-4.4-3.1-4.2c-1.8,0.2-4-4.2-1.8,0.2c2.2,4.4,2.5,6,2.5,6
		s-6.7-0.9-3.4-0.4s-0.2,4.4,2,4.8c2.2,0.4,1.1-5.4,6.2,1.9s2.5,14.8,2.5,14.8l-0.9,3.3L871.6,129.4z"/>
	<path class="st4" d="M859.2,146.6c3.1,2.6-0.3-5.7,1.9-4.4c1.6,1-0.9-2.6-2.4-4.7c-0.6-0.8-1-1.3-1-1.3s6.5,6.5,7.1,2.6l-3.6-7.8
		c0,0,3.2,6.2,4.9,5.4c1.8-0.8,2.2-8.7,2.2-8.7s2.6,7.9,3.2,6.9c0.5-1.1,2.6-4.9,2.6-4.9c2.2,9,5.7,8.5,7.1,6.8
		c1.3-1.7,6-6.1,6.6-5.4c0.7,0.8,7.1,0.1,8.1-5.2c1.1-5.3,0.3-4.9,2.2-5c1.9-0.2,4.2-3.5,3.1,1.8c-1.1,5.3-1,2.8,0.3,4.6
		c1.2,1.8,3.4,3.1,2.4,2.5c-1.1-0.6,5.5-0.9,1.1,0.7c-4.4,1.6-5.1,3.2-5.1,3.2c-3.7,4.1-4,5.5-4,5.5s-10.1,2.1-5,1.1
		c5-1.1,3.1,1.9,3.1,1.9l-22.4,16.1c0,0-0.5-2.4-3.6-1.1c-3.1,1.3-3.1,1.3-3.1,1.3s1.9-3.8,0.4-4.6
		C861.4,151,859.2,146.6,859.2,146.6z"/>
	<path class="st5" d="M869.9,119.3c0,0-0.8-1.2-2.8,0s-0.9,3-3.1,3c-2.2,0-0.2-2.6-2.8-1.8c-2.6,0.9-3.7,1.1-4.1,3.3
		c-0.4,2.2-5,2.2-0.4,2.2s5.6,0,5.6,0c-1,4.8-0.1,0.9,0.8,3.4c0.9,2.5,0.4,4.9,2.8,1.4c2.5-3.4-3.4-5.4,2.5-3.4
		c5.8,1.9,6,2.2,8.1,0.9s0.7-0.7,5.7-1.1c5-0.4,6.2-0.9,7.2-2.8c1.1-1.9,4.6-6.9,4.6-6.9s3.5-4.2,0-2.6c-3.5,1.6-6.4,5-7.8,4.5
		s-5.7-2.6-5.7-2.6s-3.4,2.9-6.1,5.6C871.9,124.9,869.9,119.3,869.9,119.3z"/>
	<path class="st4" d="M864.9,93.5c0,0-1.9-7.6-5.3-6.3s-2.5,1.2-3.5-0.2c-1.1-1.4-1.9-4.2-1.9-4.2h3.6c0,0,3.4-1.8-0.6-4.4
		c-4.1-2.6,2-10.6,2.4-9.3c0.4,1.2,1.4,1.7,4.3,6.5c2.9,4.9,1.8,6.6,2.8,4.9c1.1-1.8-0.2-1.9,0-5.3c0.2-3.4-3.1-5.3,0.2-3.4
		s2.6,2.5,4.8,4.9c2.1,2.5,3.9,2.6,6.1,1.9c2.2-0.7,1.8-1.6,3.4-0.7s1.6,0.9,1.6,0.9s0.4,1.6,1.1,4c0.6,2.4,2.5-1.8,2.5-4.2
		c0-2.5-2.2-1.3,0-2.5c2.2-1.1,3.1-3.5,3.7-3.1c0.6,0.4,0.9-2.6,1.6,1.6c0.7,4.2-0.4,3.4,0.7,4.2s0.4,2.2,2.2-1.8
		c1.8-4,1.8-5.6,1.8-5.6l2.2-0.2c0,0,2.2,0.6,2.5-2.5s-2.2-5.3,0.2-3.1c2.4,2.2,3.1,1.9,4.2,1.3s5.1-9,4.4-5.1s-1.8,7-1.8,7
		s0.3,1-1.8,3c-2,1.9-2,1.9-2,1.9s1.7,4.7,5.6-0.9c3.9-5.6,3.4-8.1,4.8-7.5s2.2,3.4,2.8-0.4c0.6-3.8,1.9-11.3,0.7-3.7
		c-1.2,7.6-4,9-1.3,7.5c2.6-1.5,9.9-8.4,7.8-6.9s1.8,0.6-2.8,7c-4.6,6.4-9.7,8.3-11.3,8.7s1.8-4.7-4.1,1.3c-6,6,7.2,6.4,7.2,6.4
		s-3.1,2.2-4.9,1.1c-1.8-1.1-6.4,1.8-8.8,1.8c-2.5,0-4.6,0.9-5.5,1.3c-0.9,0.4-0.9,0.4-0.9,0.4s1.1-0.9-2.6,1.1s1.3-1-1.1,2.3
		c-2.4,3.3-6.2,0-6.2,0s-0.2-0.6-2.2,1.4c-2,2-1.3,0.8-1.3,0.8c-2.8,4.8-2.2,2.6-2.2,2.6c-1.9,1.8-2.5,4.2-5.8,1.6
		c-3.4-2.6-1.9-1.9-4.3-4.1C864.9,93.5,864.9,93.5,864.9,93.5z"/>
	<path class="st5" d="M898.2,136.8c0.7,0.3,3.8-0.5,7.8,0c4,0.5,4,2.2,6.4-0.2s2.6-1.2,4.4-4.1c1.8-2.9,1.9-1.8,4.6-5.1
		c2.6-3.4,5.5-7.5,5.5-8s-1.1-0.4-4.4,3c-3.4,3.3-4.6,4.1-6.2,4.6c-1.6,0.4-4.2,0.9-3.7-0.4c0.5-1.3-2.5,0.1,0-3
		c2.5-3.2,2.2-3.4,2.6-4.4c0.4-1,9.7-7.8,1.1-2.1c-8.6,5.7-11.2,6.4-10.3,5.3c0.9-1.1,1.1-4,0.6-4.2c-0.4-0.2,4.4-4.7-0.4-0.2
		c-4.9,4.4-4.9,4.4-4.9,4.4l0.3,4.6L898.2,136.8z"/>
</g>
</svg>
