<?xml version="1.0" encoding="utf-8"?>
<!-- Generator: Adobe Illustrator 22.1.0, SVG Export Plug-In . SVG Version: 6.00 Build 0)  -->
<svg version="1.1" xmlns="http://www.w3.org/2000/svg" xmlns:xlink="http://www.w3.org/1999/xlink" x="0px" y="0px"
	 viewBox="0 0 1040.1 395" style="enable-background:new 0 0 1040.1 395;" xml:space="preserve">
<style type="text/css">
	.st0{fill:none;stroke:#000000;stroke-miterlimit:10;}
	.st1{fill:#323339;stroke:#000000;stroke-miterlimit:10;}
	.st2{fill:#FBF7EF;stroke:#000000;stroke-miterlimit:10;}
	.st3{fill:#9E9E9E;stroke:#000000;stroke-miterlimit:10;}
	.st4{fill:#E48D36;stroke:#000000;stroke-miterlimit:10;}
	.st5{fill:#45754C;stroke:#000000;stroke-miterlimit:10;}
	.st6{fill:#5E9E6A;stroke:#000000;stroke-miterlimit:10;}
	.st7{fill:#77C480;stroke:#000000;stroke-miterlimit:10;}
	.st8{fill:#8FCD95;stroke:#000000;stroke-miterlimit:10;}
	.st9{fill:#395B3D;stroke:#000000;stroke-miterlimit:10;}
	.st10{fill:#457547;stroke:#000000;stroke-miterlimit:10;}
</style>
<g id="Layer_12">
	<line class="st0" x1="0" y1="331" x2="1040.1" y2="331"/>
	<line class="st0" x1="0" y1="373" x2="1040.1" y2="373"/>
	<line class="st0" x1="0" y1="352.5" x2="1041.2" y2="352.5"/>
</g>
<g id="Layer_9">
	<g id="Layer_7">
		<polygon class="st1" points="1017.3,389.8 995.1,338.1 813.6,338.1 614.9,335.3 583.1,372.1 567.1,389.8 		"/>
	</g>
	<path class="st2" d="M777.7,389.1l16.2-5.8l-17-5.1c0,0-3.5-1.2,2.7-2.8s19-4.8,19-4.8l-16-6.5c0,0,1.3,0,9.3-1.2s10-3.4,10-3.4
		l-15.2-4.9c0,0-6.5-1.8-1.2-2.2s16.5-4.2,15.5-4.2s-12.8-4.2-12.8-4.2s-2-1.5,3.8-2.5s12.5-3.3,12.5-3.3l-33-0.5
		c0.7,0,12.7,3.8,12.7,3.8s3,2.5,0,3.2s-15.7,2.7-15.7,2.7l9.9,4.1c0,0,5.2,2,3.4,2.3s-16.1,4.9-16.1,4.9s13.6,2.9,13.6,4.6
		c0,1.8-0.1,1.1-1.6,1.6c-1.5,0.5-16.3,4.6-16.3,4.6l12.5,5.5c0,0,1.5,2-0.8,2.8s-18.8,4.1-18.8,4.1l10.8,6.1l-2.2,1.2H777.7z"/>
	<path class="st2" d="M958.7,338.6l34.5-0.3c0,0-13.6,4.4-13.8,5.2c-0.2,0.8,0.2,1.7,0.2,1.7l18.2,3.8l-14.8,4.4
		c0,0-0.5,1.6,0.7,2.1c1.2,0.5,18,5,18,5l-13.1,4.6c0,0-1.3,1,2,2.5s18.3,5.2,18.1,5.2s-15,5.2-15,5.2s-3.4,1.7,0.9,2.5
		c4.3,0.8,18,4.9,18,4.9s-9.9,3.7-10.2,3.7s-14.8,0-14.8,0l-13.5-4.3l15.6-4.8c0,0,2-0.9-1.3-2.2c-3.3-1.2-20-5.3-20-5.3l17.2-5.7
		c0,0,1.4-1.8-0.4-2c-1.8-0.2-19.3-4.8-19.3-4.8l15-4.3c0,0,0.9-1.8-1.3-2.2c-2.2-0.4-17.8-4.2-17.8-4.2l14.4-4.3c0,0,0.8-2-1.8-1.9
		C971.7,343.2,958.7,338.6,958.7,338.6z"/>
	<path class="st2" d="M919.2,338.6l34.5-0.3c0,0-13.6,4.4-13.8,5.2c-0.2,0.8,0.2,1.7,0.2,1.7l18.2,3.8l-14.8,4.4
		c0,0-0.5,1.6,0.7,2.1c1.2,0.5,18,5,18,5l-13.1,4.6c0,0-1.3,1,2,2.5s18.3,5.2,18.1,5.2s-15,5.2-15,5.2s-3.4,1.7,0.9,2.5
		c4.3,0.8,18,4.9,18,4.9s-9.9,3.7-10.2,3.7s-14.8,0-14.8,0l-13.5-4.3l15.6-4.8c0,0,2-0.9-1.3-2.2c-3.3-1.2-20-5.3-20-5.3l17.2-5.7
		c0,0,1.4-1.8-0.4-2c-1.8-0.2-19.3-4.8-19.3-4.8l15-4.3c0,0,0.9-1.8-1.3-2.2c-2.2-0.4-17.8-4.2-17.8-4.2l14.4-4.3c0,0,0.8-2-1.8-1.9
		C932.2,343.2,919.2,338.6,919.2,338.6z"/>
	<path class="st2" d="M917.1,338.3c0,0-14.1,4.7-14.3,5.2s-1,2.2,1.2,2.1c2.2-0.1,16.1,2.9,16.1,2.9l-16.2,4.6c0,0-1.7,1.3,1.8,2.1
		s16.8,4.7,16.8,4.7l-17.2,4.9c0,0-3.9,1.2,0.5,2.2s18.1,4.3,18.1,4.3l-16.9,6.1c0,0-3.1,0.4,0.9,1.8c4,1.3,18.8,4.2,18.8,4.2
		l-15.7,5.4l-11.7,0.4l-13.2-5l16.2-4.9c0,0,1.8-2.3-0.9-2.4c-2.7-0.1-15.2-5.2-15.2-5.2l14.9-4.6c0,0,2.2-1.9-0.9-2.8
		c-3.2-0.8-15.7-4.8-15.7-4.8l16-4.4c0,0,1.4-1.8-0.9-2.3c-2.3-0.5-15.8-3.3-15.8-3.3l15.2-4.1c0,0,0-1.2-2.8-1.9s-13-5.2-13-5.2
		H917.1z"/>
	<path class="st2" d="M881,338.3l-17,4.7c0,0-1.5,1.7,0.8,2.3c2.3,0.7,13,3.5,13,3.5l-14.3,4.2c0,0-2.8,1.2,0,2
		c2.8,0.8,17.5,4.5,17.5,4.5l-16.2,4.2c0,0-2.8,1.6-0.2,2.2s17.5,5.3,17.5,5.3l-17.8,5c0,0-1.7,1.3,1.7,2.3c3.3,1,16.2,5.7,16.2,5.7
		l-15.2,4.8h-8.7l-15.2-5.7l18.7-4.5c0,0,1.7-1.3-1.3-2.7c-3-1.3-17.3-5.3-17.3-5.3l18.3-4.8c0,0,3-1-3-2.4s-13.8-4.2-13.8-4.2
		L861,355c0,0,0.8-2.2-2-2.5c-2.8-0.3-13.2-3.7-13.2-3.7l15.8-3.5c0,0,0-2.5-3.3-2.7c-3.3-0.2-12.5-4.3-12.5-4.3H881z"/>
	<path class="st2" d="M841.2,338.3l-17,4.7c0,0-1.5,1.7,0.8,2.3c2.3,0.7,13,3.5,13,3.5l-14.3,4.2c0,0-2.8,1.2,0,2
		c2.8,0.8,17.5,4.5,17.5,4.5l-16.2,4.2c0,0-2.8,1.6-0.2,2.2s17.5,5.3,17.5,5.3l-17.8,5c0,0-1.7,1.3,1.7,2.3c3.3,1,16.2,5.7,16.2,5.7
		l-15.2,4.8h-8.7l-19.6-5.7l23.1-4.5c0,0,1.7-1.3-1.3-2.7c-3-1.3-17.3-5.3-17.3-5.3l18.3-4.8c0,0,3-1-3-2.4s-13.8-4.2-13.8-4.2
		l16.3-4.5c0,0,0.8-2.2-2-2.5c-2.8-0.3-13.2-3.7-13.2-3.7l15.8-3.5c0,0,0-2.5-3.3-2.7c-3.3-0.2-12.5-4.3-12.5-4.3H841.2z"/>
	<path class="st2" d="M620.4,335.6l10.4,3.9c0,0,2.8,1.6-1.4,2.4s-17.6,2.6-17.6,2.6l11.4,4.4c0,0,2.6,2.1-0.9,2.5s-18.9,0-18.9,0
		l12.5,8.5c0,0,0.8,0.2-2.8,1.4s-18.9,4.5-18.9,4.5l11.6,4c0,0,1.9,1.6-0.1,2.2s-21.6,5.8-21.6,5.8s11.6,4.8,11,5.8s-1,1.6-1,1.6
		l-10,2.4v1.6l20.8-0.6l-7.8-3.8c0,0-2.4-0.9,11.5-3.5s13.2-3,13.2-3l-14-6.4c0,0-0.4-1.8,2.9-1.9s18.8-3.4,18.8-3.4
		s-10.8-4.5-11-4.9s-1.9-2.4,1.6-2.9s14.1-2.4,14.1-2.4l3-0.9c0,0-10.6-2.9-11-4.1s0.1-2.6,1.6-2.2s17.8-3.9,17.8-3.9l-11.5-3.5
		c0,0-0.6-1.8,1.1-1.9s15.6-3.9,15.6-3.9L620.4,335.6z"/>
	<path class="st2" d="M655.4,336.1c0.7,0,12.7,3.8,12.7,3.8s3,2.5,0,3.2s-17.2,2-17.2,2l11.5,4.8c0,0-0.4,3-2.2,3.2s-17,1.8-17,1.8
		s11.5,3.8,11.5,5.5c0,1.8-1.5,1.4-3,2c-1.5,0.5-16.2,3.5-16.2,3.5l12.5,5.5c0,0,1.5,2-0.8,2.8s-20.5,4.5-20.5,4.5l12.5,5.8
		c-2.8,3.2-8.5,4.8-8.5,4.8h14.2c0,0-5.2-2.8-1.2-4s20.2-6,20.2-6l-13-4.5c0,0-3.5-1.2,2.7-2.8s19-4.8,19-4.8l-14-4.5
		c0,0-0.8-2,7.2-3.2s12-2.8,12-2.8l-12.2-4.5c0,0-1.5-1.8,3.8-2.2s16.5-3.2,15.5-3.2s-12.8-4.2-12.8-4.2s-2-1.5,3.8-2.5
		s12.5-3.3,12.5-3.3L655.4,336.1z"/>
	<path class="st2" d="M698.4,337.2c0.7,0,12.7,3.8,12.7,3.8s3,2.5,0,3.2s-17.2,2-17.2,2l11.5,4.8c0,0-0.4,3-2.2,3.2s-17,1.8-17,1.8
		s11.5,3.8,11.5,5.5c0,1.8-1.5,1.4-3,2s-16.2,3.5-16.2,3.5l12.5,5.5c0,0,1.5,2-0.8,2.8s-20.5,4.5-20.5,4.5l12.5,5.8
		c-2.8,3.2-8.5,3.7-8.5,3.7h14.2c0,0-5.2-1.7-1.2-2.9s20.2-6,20.2-6l-13-4.5c0,0-3.5-1.2,2.7-2.8s19-4.8,19-4.8l-14-4.5
		c0,0-0.8-2,7.2-3.2s12-2.8,12-2.8l-12.2-4.5c0,0-1.5-1.8,3.8-2.2s15.5-3.2,14.5-3.2s-11.8-4.2-11.8-4.2s-2-1.5,3.8-2.5
		s12.5-3.3,12.5-3.3L698.4,337.2z"/>
	<path class="st2" d="M734.9,337.7c0.7,0,12.7,3.8,12.7,3.8s3,2.5,0,3.2s-16.2,3.7-16.2,3.7l10.5,3.1c0,0,1.8,2.1,0,2.4
		s-14.2,2.6-14.2,2.6s11.5,3.8,11.5,5.5c0,1.8-1.5,1.4-3,2c-1.5,0.5-16.2,3.5-16.2,3.5l12.5,5.5c0,0,1.5,2-0.8,2.8
		s-20.5,4.5-20.5,4.5l12.5,5.8c-2.8,3.2-8.5,2.7-8.5,2.7h14.2c0,0-5.2-0.7-1.2-1.9s20.2-6,20.2-6l-13-4.5c0,0-3.5-1.2,2.7-2.8
		s19-4.8,19-4.8l-14-4.5c0,0-0.8-2,7.2-3.2s12-2.8,12-2.8l-12.2-4.5c0,0-6.5-1.8-1.2-2.2s17.1-4.2,16.1-4.2s-13.3-3.3-13.3-3.3
		s-2-1.5,3.8-2.5s12.5-3.3,12.5-3.3L734.9,337.7z"/>
</g>
<g id="Layer_5">
	<line class="st0" x1="0" y1="315.6" x2="1040.1" y2="315.6"/>
	<polygon class="st0" points="751.2,257.7 1040.1,257.7 1040.1,264.7 749.4,263 	"/>
	<polygon class="st0" points="805.6,241 1040.1,243.5 1040.1,257.7 751.2,257.7 758.1,241 	"/>
	<path class="st0" d="M791,263.2V334c0,0,2.7,2,4.7,0v-70.8H791z"/>
	<path class="st0" d="M795.7,319c0,0,2.7,2,5.3,0v-55.8h-5.3V319z"/>
	<line class="st0" x1="801.1" y1="272" x2="831.7" y2="263.2"/>
	<line class="st3" x1="801.1" y1="282" x2="845.4" y2="263.2"/>
	<line class="st0" x1="1013.7" y1="264.5" x2="1040.1" y2="274.3"/>
	<line class="st0" x1="1001.4" y1="264.4" x2="1040.1" y2="279"/>
</g>
<g id="Layer_4">
	<path class="st1" d="M907.3,186.2c0,0-29.1,4.3-25.6,7.3c3.5,3,16.6,5.6,31.4,5c14.8-0.6,34.8-3.6,34.8-3.6s5-2.7-6.3-5.5
		C930.2,186.6,907.3,186.2,907.3,186.2z"/>
	<path class="st1" d="M947.9,194.9c0,0-8,9.4-9.3,18.4s-3.3,20.2-3.3,23s0,6-1.3,8.3c-1.3,2.3-0.3,2.7-3,4.2
		c-2.7,1.5-32.7,6.2-38.7,0c-6-6.2-4.3-35.7-4.7-37.4c-0.3-1.7-0.2-7.2-2.9-9c-2.7-1.7-3-8.8-3-8.8S894.9,204.1,947.9,194.9z"/>
	<path class="st0" d="M810,189.7c1.1,0,40.2,2.5,50.8-2c0,0,3.3-4.5-13.8-6.4c0,0-31.6-4.9-37.1-1.2c-5.5,3.7-8.3-1.1-7,2.1
		S803.7,189.6,810,189.7z"/>
	<path class="st2" d="M859.7,184.6c0.1,0,11.2-0.7,10.2,1.6s-6.3,4.2-6.3,4.2s-39.9,6.6-51,2s-11-4.5-11-4.5l1.4-5.6
		C803,182.3,822.8,172,859.7,184.6z"/>
	<path class="st4" d="M869.9,186.2c0,0,6.3,38.7-10.7,50.7c0,0-13.6,11.7-33.3,10.8c-19.7-0.8-33.4-7.7-38-31.1l2.7-26.2l11-2.5
		c0,0,53.2,8.4,58.1-3.3C859.7,184.6,869.5,183,869.9,186.2z"/>
	<path class="st2" d="M906.3,189.3c0,0-18.1,4.9-16.2,4.7c1.8-0.2,19.8,1.2,26.8,0.7s23,0.4,21.7-1.2c-1.3-1.6-13.5-2.6-16.9-3.1
		C918.2,189.9,906.3,189.3,906.3,189.3z"/>
	<path class="st4" d="M968.9,195.8c0,0-26.5,2.2-14,6.4s52.1,1.1,52.1,1.1s11.5-3.1,1.7-5.8c-5.2-1.4-10.5-1.7-10.5-1.7l-5.6-0.2
		L968.9,195.8z"/>
	<path class="st2" d="M978.7,196.5c0,0-17.8-2-16.5,1.1s21,5.3,31.5,4.3s11.8-1.2,11.5-2.3s4.5,0.8-0.2-1.2s-7.8-3.1-9-2.5
		s-3.2-0.2-3.2-0.2L978.7,196.5z"/>
	<path class="st4" d="M1012.7,201.2l-5.7,47.7l-1.4,6.1c0,0-13,7.2-43.6,4.1c0,0-11.5-55.5-10.4-59.4c0,0,1.1,2.7,6.2,3.4
		c5.1,0.7,41.5,0.8,42.2,0.8C1000.9,203.7,1011.2,204,1012.7,201.2z"/>
</g>
<g id="Layer_3">
	<path class="st0" d="M758.1,73.4c0,0,4.1,19.9,7.2,25.3c3.1,5.5,19.2,77.8,14.2,84.8l8,1.6c0,0-22.6-95.4-23-106.2
		S758.1,73.4,758.1,73.4z"/>
	<path class="st2" d="M829.1,187.7c0,0-20.2-65.1-115.8-94.3l-7.4,2.7C705.8,96.1,785.1,102.7,829.1,187.7z"/>
	<path class="st2" d="M816.5,184.6c0,0-58.3-13.5-75.8,13.9l-4.1-5.9c0,0,25.8-21.3,79.8-11.3V184.6z"/>
	<path class="st2" d="M746.3,192.1c0,0-14.1,36.4-6.8,46.6l-2.9,2.5c0,0-6.4-19.1,4.1-42.7s2.5-15.9,3.5-15.9
		S746.3,192.1,746.3,192.1z"/>
	<path class="st2" d="M814.5,202.3c0,0,1.9-22.1,5.3-16.8l2.5,3C822.3,188.5,819.2,182.7,814.5,202.3z"/>
	<path class="st2" d="M793.6,195.7c0,0,4.8-37.5,28.8-14.4v7.2c0,0-6.6-13-11.7-11.6C805.6,178.2,802.4,172.7,793.6,195.7z"/>
	<path class="st2" d="M751.1,134.5c-7.3-0.5-3.2-6.6-3.2-6.6s49.7,2.7,81.2,59.8l-3.9,0.8C825.2,188.5,802,138,751.1,134.5z"/>
	<path class="st2" d="M833.2,187.7c0,0,14-43.2,24-43.5v2.7c0,0-19,28.2-20.2,42.4L833.2,187.7z"/>
	<path class="st2" d="M848.9,53.1c0,0-23.9,93.7-23,127.1l2,4.6c0,0,16.4-124,24.3-131.8C860.2,45.2,848.9,53.1,848.9,53.1z"/>
	<path class="st2" d="M842.7,43.8c-0.1,0.2-32.7,104.7-20.4,144.7h2.9c0,0-11.2-56.6,21.9-143.3L842.7,43.8z"/>
	<path class="st2" d="M878.1,109.4c0,0.7,16.7,32,19.3,37.5s7.2,9,8.9,23.3s0,1.8,0,1.8s0.3,3.7,0.8,6.3c0.5,2.5-0.1,1.6,0,4
		c0.1,2.4,1.1,0.8,0.2,3.9c-0.9,3,0.4,5.7,0.4,5.7l-0.6,2.8c0,0,5.2,1.1,6.7-0.7c1.5-1.8,0-4.7,0-4.7l-0.7-4.7c0,0,1-5.8,0-6.3
		c-1.1-0.6-6.1-20-5-22c1-1.8,12.5-24,14.5-22s-4.8-5.2-4.8-5.2s-8.1,15.5-9.9,19.5s-1.5,7.8-2.5,4.3s-6.6-13.7-6.6-13.7
		s-11.6-32.2-12.5-34.1c-0.9-1.9-4.8,0.1-5.4,0.6C880.4,106.4,878.1,109.4,878.1,109.4z"/>
</g>
<g id="Layer_11">
	<path class="st5" d="M978.7,199.5c0,0,37.5-62.7,53.5-117.2l9-25.7c0,0-2.5,16.7-7.8,34.9s-39.2,97.8-39.2,97.8s-1.8,3.9,0.5,7.1
		s3.5,3.1,3.5,3.1H978.7z"/>
	<path class="st5" d="M985.6,187.4c0,0-6-41-7-42.5c-0.3-0.5-1.5-3.7-3.9-7.7c-4.6-7.8-13.6-18.6-29.3-18.9l2,7.1
		c0,0,13-3.2,21.2,12.8c0,0,10,11.9,10,36.7v24.7L985.6,187.4z"/>
	<path class="st6" d="M984.8,181.7c0,0,1.9,0.6,7.9-12.6s19.8-48,20.5-52.3s4.7-26.5,3.5-31.8c-1.3-5.9-1-14.4,2.2,2.1
		s-9.7,54-9.7,54l-23.6,46.2L984.8,181.7z"/>
	<path class="st6" d="M974.8,137.2c0,0-26-50.8-43.2-60.8c0,0-5.6-4.8-6.8-5.5s-0.2-3.3,9,3.9c9.2,7.1,34,35.3,34,35.3
		s14.8,21.3,15.2,25.3s6.2,40.9,6.2,40.9l-4.4,5.5c0,0-4.8-34.1-6.1-36.9C977.4,142.1,974.8,137.2,974.8,137.2z"/>
	<path class="st7" d="M987.8,167.2c0.2,1.4,15.4-35.2,16.4-40.7c0.5-2.5,1-6.1,1.5-9.3c0.6-3.9,1-7.2,1-7.2s3.8-10.4,1.2,6.3
		s-5.5,29.6-5.5,29.6l-13.2,30.3L987.8,167.2z"/>
	<path class="st7" d="M970.4,114.1c0,0-11.1-31.6-9.3-28.6c4.2,6.9,10.5,20.4,12.2,25.7s11.5,24,13,31.2s2.7,22.3,2.7,22.3l-1.4,2.5
		c0,0-3.5-23-3.8-24.8C983.7,140.6,976.2,119.3,970.4,114.1z"/>
</g>
<g id="Layer_8">
	<path class="st6" d="M902.6,127.9c0,0,2.2,2.1,0,5.3s0,7.3,0,7.3s3.5-1.7,3.8-2.9c0.2-1.2,3.2-5.9,3.2-5.9l2,3.5v5.3
		c0,0-3.8-2.4-5,0s0,3.7,0,3.7l3.8,2l1.2,2.5l5.2-3.5c0,0,0.5,1.8,0-3.2s0.2-6.7,0.2-6.7s1.3-5,2.8,0s1.2,3,1.2,3s4.5,4.1,5,0
		c0.5-4.1,1.2,0.7,0.5-4.1s-0.5-0.8-0.8-4.8s1.2,1.5-0.2-4s-1.5-5.5-1.5-5.5s-0.8-1-5.2,1.5s-0.2,3.8-4.5,2.5s-2.8,3-4.2-1.2
		s-1.5-2.9-1.5-2.9l0.5-5.8h10.2l7.6-5.8c0,0,0.9-1.4,1.4-3.2c0.5-1.8,0.5-1.8,0.5-1.8s4.2-1.7,5.8-5.2c1.5-3.5,0-3.5,0-3.5
		l-3.7,1.6l-6.1,1.9c0,0-1,5-2.2,2s3.8-10,1.2-6.5s-7,2.6-7,2.6h-4.4L890.1,98c0,0,2.2-3.3-1.5-1.9c0,0-6.9-0.9-2.2,9.2
		c4.7,10.1,5.2,11.9,5.2,11.9s5.3,4.7,4.8,5.3c-0.5,0.6-3,0.2-1.5,1.8s1.5,1.6,1.5,1.6s2.3,1,2.5,3c0.2,2,0.2,2,0.2,2L902.6,127.9z"
		/>
	<path class="st8" d="M930.9,125.8c0,0-4.7,0.4,0,3.7s5.9,2,5.9,2s0.2,2.3,3.2,3.8s4.8,6.2,3,1.5s-1.8-4.8-1.8-4.8l-1.8-5l-3.3-1.2
		l-1.1-6.1l1.1-3.5l2.8-3.7c0,0,4-5.4,2.8-7.4s3.8-8.8-1.2-2.1s-7,6.2-7,6.2l-6.7-1l-13.3-0.8l-14,6.5l6.8,11.8l11.5,3.4
		c0,0,7.9-9.6,10.5-6.5C930.9,125.8,930.9,125.8,930.9,125.8z"/>
	<path class="st9" d="M945.8,140.6l6.5,1.2c0,0,5.5,1.9,3.5-1.2s-3.2-5.3-3.2-5.3l1-2.8l6-4.6c0,0,5-1.8,6,0s-1.2-4.4-1.2-4.4
		s-8.5-5.8-11.5-7.3s-3.5-3-2.5-4.7s3.2-3.5,3.2-3.5l6.2-1.8l3.5-1.2l-4.8-5h-4.8h-3l-5-4l3.8-3.6l2-2.3l-4-3.7l-3-3.4
		c0,0-10.4-6.4-9.3-0.9c1.1,5.5,1.1,5.5,1.1,5.5l-2.8,0.1h-4.5c0,0,1.8,0.4-4.8,2.4s-5.2,0.8-5.2,0.8l-7.8,2.4l11.2,6.6l4.3,8.2
		c0,0,3.2,1-1.1,4.5s-4.3,2.5-5.8,4.5c-1.5,2-2.7,2.3-4.2,4.5s-1.5,2.2-1.5,2.2l-0.2,7c0,0,4.2-4.8,6-4c1.8,0.8,10.9-7.6,10.9-7.6
		l4.3,3.6v4.9l7.8,8.8L945.8,140.6z"/>
	<path class="st10" d="M886.3,105.3c-7-2.3-14.4,0-14.4,0s-2.4,6.5-9.1-2.4c-6.6-8.9-4.7-13.7-4.7-13.7s4,2.5,3.7-6.1
		s-5-1.1-0.2-8.6s0.2,2.5,4.8-7.5s-4.7-6,1.9-7.5C874.8,58,875,55,875,55l5.1,10l15-15.4c0,0,7.3-2.3,3.8,4.2c-3.5,6.5,0,8.6,0,8.6
		h7.5c0,0,0,1.9-4.2,5.3s-7.8-1.9-4.2,3.4c3.6,5.3-3.6,5.2,3.6,5.3s10.6-8.7,7.1,0.1c-3.5,8.8-1,11.4-1,11.4s9.3,2.4,3.8,5.6
		c-5.5,3.3-5.5,3.3-5.5,3.3L886.3,105.3z"/>
</g>
<g id="Layer_2">
	<path class="st6" d="M713.2,96.2V85.9c0,0,7.7-11.3,7.7-12.7c0-1.3,0-5.7,0-5.7l-0.8-2.3c0,0-1-1.7-0.7-5.3v-2.7c0,0-1-0.7-2.3,1.8
		c-1.3,2.5-3.8,6-3.8,6s3.3-4.2,3-9.2c-0.3-5-1.3-5.5-1.3-5.5l-1.7,0.8l-1.5,3.8l-1.5,2.8l-0.7-2.8c-1.3-2-1.5-2.3-2.7-3
		s-1-0.8-0.8-1.7c0.2-0.8-1.2-1.5-1.2-1.5l-3.2-1.5c0,0-0.8,0.3-0.7,2c0.2,1.7,0,3.5,0,3.5s2.2-0.7,1.9,1.5
		c-0.3,2.2-1.7-1.3-0.3,2.2c1.3,3.5,1,4.5,1,4.5c-0.5,1.8,0,2.7,0,2.7l-0.2,1.8l-1.7-0.7c0,0-0.2,1-0.7-1.7
		c-0.5-2.7-0.5-2.7-0.5-2.7s0-3.7-1.3-2.7c-1.3,1-1.3,1-1.3,1l0,0c0,0-1.5-3-3.2-5.2c-1.7-2.2-2.8-2.5-2.8-2.5
		c-1.7,0.5-3.2,0.7-2.5,1.8s2,3.8,2.5,4.7c0.5,0.8,2.5,4.8,2.5,4.8l1.8,2.8l-2.8-1c0,0-1,0.5,1.7,2.8c2.7,2.3,6.7,6.2,6.7,6.2
		s0.5,1.2,0.5,2.2s0,1.3,0,1.8s0,1.3,0,1.3l-8.7-6.9c-2.2-1.9-3.7-1.2-3.3-1.9c0.3-0.7-1.7,1.9-1.7,1.9s-3.7-0.9-5-0.8
		c-1.3,0.2-2.3-0.2-2.7,0.8c-0.3,0.9,0,1.9,0,1.9s-0.5-1.3,2.3,0.2c2.8,1.5,5.5,2.3,5.5,2.3l2.3,2.7c2.2,2-1,3.3,1.2,2.7
		c2.2-0.7,3.2-0.8,3.2-0.8l2.5-0.3c0,0,0.7,0.5,1.2,2s4,4,2.7,4.7c-1.3,0.7-2,1.5-3.7-0.5c-1.7-2-2-2.7-2.7-1.7s-0.7,1-0.7,1
		s0.5,0.7-2.2-0.3c-2.7-1-2.3,2.3-4.3-1.2s-2-3.5-2-3.5s0.3-0.7-1.2,0.7c-1.5,1.3-1.2,0.2-1.5,1.3c-0.3,1.2-0.3,1.2-0.3,1.2
		s-13.2-0.7-13.8-1.2s-2.2-1.2-2.2-1.2c-1.7,2,1.8,3,3.3,3.8c1.5,0.8,6.7,1.3,7,2.8c0.3,1.5,2,0.8,2.5,0.7c0.5-0.2,1-0.2,1.5-0.5
		c0.5-0.3,2.3-0.2,2.3-0.2s1.7-1,2,0.7c0.3,1.7,1.5,1.3,1.5,1.3s0.5-0.5,1.8-0.8c1.3-0.3,2.7-0.3,2.7-0.3s1.4,1.8,1.9,1
		c0.6-0.8,0.6-0.8,0.6-0.8l1,0.5c0,0,0.3,1.8-0.8,2.3c-1.2,0.5-3.8-1.2-5.8,0c-2,1.2-3.3,1.7-3.3,1.7s-0.7-0.5-3.5,0.5
		s-0.7-2.3-4.7,0.7s-5.2,3.7-5.2,3.7s-4.8,0.5,1.2-0.7c6-1.2,10-1,10-1l2.2-0.5l2.7-0.2c0,0-0.2,0.3-3,1.7c-2.8,1.3-5.2,2-6,3.2
		c-0.8,1.2-3,3-3,3s-2,2.3-4.5,1.3s-3.8-1-3.8-1s-9.7-3.5-11.2-6s-3-2.2-3-2.2s-1.7-0.3-2.2-0.3s-0.5,2.3-2-0.2s-3.7-3.7-3.7-3.7
		l-1.2,0.3v4c0,0,2-0.5,3.3,1.3s-0.3,2.5,1.3,3.3c1.7,0.8,5.5,0.8,5.5,0.8s6.4,1.7,4.8,2.5c-2.3,1.2-4.2,1.2-4.2,1.2l-2.2-1.9
		c0,0-6-0.8-7.2-2.5c-1.2-1.7-1.2,0.3-1.2,0.3l-2,2.3l1.2,1.7l2.5,0.1c0,0,2.8-0.3,2.3,0s-1,1.1-4.8,2c-3.8,0.9-4.5,1.8-4.5,1.8
		l2.5,1.7l5.3-2h3.7c0,0-1.8,1.3-1.2,2.7s2,2.2,2,2.2s1.8,1.2,2.8,1.8s2.2,1,2.2,1l2.3-0.8c0,0-0.5-0.8,0.5-2.7s3.5-3.8,3.3-0.3
		c-0.2,3.5-1.8,6.3-1.8,6.3l0.3,2.7l-1,2.2h2.5l2.2-1.7c0,0,2.5-2.3,3.7-4.3s3.2-4.7,3.2-4.7s1.7-2.8,2.3,0.3s1.2,4.5,1.2,4.5
		s-2.8,16.2,4.7,16c0,0,0.8-5.2,1.3-5.7s-0.2-2.2-0.7-6c-0.5-3.8-2.2-8.5-0.7-9s1.3-6,3.3-3c0,0,0,6.7,0,9.5c0,2.8,0.5,4.5-0.8,5.2
		s-1.3,0.6-1.3,0.6l2.3,2.9l-1.5,1.5c0,0,2,1.2,1.7,4.8s0.5,4,0.5,4s4.7,1,5-1.5s1.2-4.5,1.2-4.5s1.7-1.3,0.5-3
		c-1.2-1.7-0.7-1.7,0.3-2c1-0.3-1-13.5-0.8-16.2c0.2-2.7,0-6,1.8-5.2s3.2,0.2,3.7,0.3c0.5,0.2,1.3,1.8,0.2,3.7
		c-1.2,1.8-1.5,2.5-1.3,3s-0.2-0.7,0.2,0.5c0.3,1.2,0.7,2.2,0.7,2.2s-0.3,0.8-0.8,1.5c-0.5,0.7-1.7,2.5-1.7,2.5l-0.2,4.3
		c0,0-1.5,0.8,0.2,3.2c1.7,2.3,1.2,5,1.2,5s-0.2,3.2,1.8,3.5c2,0.3,3.8,0.7,3.8,0.7s0-0.8-0.5-2.3s0.5-2,0.5-2.7s0.3-4.5-0.3-5.3
		c-0.7-0.8-2.2-0.2-0.7-0.8c1.5-0.7,1.5-0.7,1.5-0.7s-3.3-2.3-0.8-1.8s3.3,1.2,3.3,1.2s-0.3,0.2,0.3-2.7c0.7-2.8,0.7-4.8,0.7-4.8
		s-1.7,4.8-1.5,0.3c0.2-4.5,0-4.2,0.3-6.2s0-0.3,0.7-3.3c0.7-3,0.2-4.2,0.7-4.7s0-0.3,1.5,0.7s2.7,2.7,2.7,2.7s4.7,2.2,6.8,1.5
		c2.2-0.7,2.2-0.7,2.2-0.7s-1.7-3.7-2.2-4c-0.5-0.3-1.7-1.2-1.7-1.2s-1.8,0.8-1.7-0.7s-1.3,1.2,0.2-1.5c1.5-2.7,1.5-2.7,1.5-2.7
		L713.2,96.2z"/>
	<path class="st6" d="M728.6,139.4l-3.5,3.3c0,0-3,0.8-8,2.8s-7.5,4.5-10.2,4.2s-2.5-0.5-5.8-1.5s-3-0.2-5.2-1.5s-4,1.8-3.8,3
		s1,1.2,6.5,3s9.5,3.8,11.7,3c2.3-0.8,2.3-0.8,2.3-0.8s-4.8,0.3-10.5,0.9s-10,2.1-10,2.1h-2.7c0,0,0,2.8,1.5,2.8s4.8,1.2,7.5,1.2
		s4.5,0.5,7.5,0s5-1.2,5-1.2s2.5-2.5-2,0.8s-4.5,3.2-4.5,3.2s-0.8,2.8-5.8,3.8s-7.2,1.8-7.2,1.8s-1.5-0.2-3.2,1.8s-4.2,4.5,7.5,5
		h3.8l-4.5,2.8l1.2,2.2l-1,3c0,0,5.2-3,3.2,0s-2.8,2.8-2.2,4.2s9.2-7.8,9-7s-0.8-0.2-1.2,5s0.2,6.2,1.2,7.2s4-13.5,4.8-14.8
		s2.2-4,2.2-3s1.2,1.2,0.8,6.5s0.2,6-0.8,8.2s0,4.2,0,4.2s1.5,0,3-8.8s3-10.5,2.2-12.5s-0.2-3.2-0.2-3.2s7.5,2,8.2,4.5s3.2,2,3.2,2
		l-1.8-4.8c0,0-1.9-1-1.2-4.2c1-5.2,1.5-7,1.5-7c3.2,0.8,3.2,0.8,3.2,0.8V160c0,0-2,2.5,0-3.8s3-7.8,3-7.8s2.5-4.5,3.2-5
		s14.5-9,14.5-9l-4.2-2c0,0-13.5,8-15.5,8.8S727.6,141.9,728.6,139.4z"/>
	<path class="st5" d="M739.6,238.7c0.2-1.8,0.8-6.2-5.2-8.2l-8-3c0,0,8.5-2.5,13.4,4l3.1,5.2l10.2-14.8v4.2c0,0,2.2-2.2,2.8-4.2
		s0,2.5,0,4.5s2.2,0.5,3-2.2s1.2,5.2,0,8.2s2.8-2.8,3.5-2.4c0.8,0.4,2.2,2.9,0,5.1s5.2,0.5,5.2,0.5s-1.5,3.2-7.2,6
		s-9.5,8.2-13.4,4.2s-4.6-5.2-7.9-3.5s-0.4,6.3,3.8,4.9c0,0,4.8-1.2,4.1,1.6c0,0-6.6,3.8-10.4,10c-3.8,6.2-53.8,12.8-54.8,14.5
		s-2.5,0.2-4,4s-2.8-1.8-1.5-4s-2.5,0.2-3.5,1s-4.5,1.8-3.8-1S669,272,669,272s0.4,5.2-2.6,4s39.5-13.8,39.5-13.8s2-13.2,5.5-14.5
		c3.5-1.3,3.8,6.7,4.2,3s-0.2-6.5-0.2-6.5s7.2,1.8,9,3.5c1.8,1.7,2.8-4-2.2-5.5l-3.3-1.5c0,0-1.5-3.5,2-2.5s5.5,1,6.5,2.2
		s1.2,1.8,2.5,3s6.2,3.2,5.5-1.5S739.6,238.7,739.6,238.7z"/>
	<path class="st7" d="M762.2,174.9c-1.5,0.3-1,2.7-4.3,0.8s-5.3-3.2-3.8-4.7s3.2,1,3-3.2c-0.2-4.2,0.5-5-1.3-6.8
		c-1.8-1.8-4.3-2.2-4.7-1.8c-2,2-2,2.5-3,4s-2.3-5.3,1.2-5.7c3.5-0.3,5.4,0,5.4,0s1.3-2.3-2.2-2.8s-4.3,0-4.3,0s1.7-2.2-2.3-3.3
		c-4-1.2-3.7,0.5-4.5,0c-0.8-0.5-0.8-0.7-1.3-2.2s-1.2-2.3-1.2-2.3s-0.8,1.5-2,2.3c-1.3,0.8-3-1.4-3-1.4s-2.5-0.4-4,0.8
		c-1.5,1.2-4.7,0.9-1.8,3.7c2.8,2.8-0.5,3.6,1.8,6c2.3,2.5-0.2,2.2-0.2,2.2l0.7,2.8l-3.2-1.5l-1.3,10c0,0,1.8,3.4,2.3,4.7
		c0.5,1.3,0.6,3,0,2.1c-0.6-0.8-2.5,2.3-4.8-1.8c-2.3-4.2-6.3-4.9-6.3-4.9s0.3,2.1,1.9,5.2c1.6,3.2,1.9,3.3,2.9,4
		c1,0.7,4.7,1.8,5,2.2c0.3,0.3-3.8,1.3-5.8,0s-3.2-1.2-3.2-1.2s1,7,6.3,7.3l-8.3-0.7c0,0,0.5,5.3,3.1,5.7c0,0-0.7-0.5-3.1,1.3
		c-2.3,1.8-3.5,1.8-3.5,1.8s-2,0.3-2.5,0c-0.5-0.3,0,0.2,0,1.5c0,1.3-3.2,1.7-3.9,4.5c0,0,0.2,3.3,6.8,0l-1.3,3.2c0,0-2.7-1.3-4.3,0
		s-2.8,1.8-3,2.3s-0.2,0.5-0.2,0.5s3.7,6,8.7,3.3c0,0-0.8,2.7-2.2,5c-1.3,2.3-3,5.2-2.2,5.8c0.8,0.7,11.8-10.2,11.8-10.2
		s-5,5.3-6.3,7.9c-1.3,2.6-0.5,3.8,0.8,2.3s1.3-1.5,1.3-1.5s-0.5,2.3-2,5.2c-1.5,2.8-2,3.5-2,3.5s1.2,2.3,5-0.7
		c3.8-3,1.5-4.2,4.3-5.7c2.8-1.5,3.2-6.3,3.2-8.3s0-3.8,1.2-4.2c1.2-0.3,0.5-1.5,0-3.8s-3-9.3,0.7-5l1,4.7l-0.2,1.7l0.5,3l2.2-6.7
		c0,0,0-5.5,1-4.2s2.4,0,2.4,0s-1.8-3.7-1.2-5.2s1.7-4.7,2-2.5c0.3,2.2,1,6,1,6s1.2,5.2,2,5c0.7-0.2,2-2.2,2-2.2l2.8-3.2
		c0,0,1.2-1.7,1.2-4s-0.2-0.7,0-2.3c0.2-1.7-2.3-3.8,0.2-1.7s2.5,2.2,2.5,2.2l1.7,3.5l1.3-3.5l1.8-1.8l0.8-2.7l1.7-2.9
		c0,0-1.3-3-0.7-1.5c0.7,1.5,0.2-1.2,0.2-1.2s-5.2-1.2,0.2-1.7s8-1.8,8-1.8l4-2l3.2-2.5L762.2,174.9z"/>
	<path class="st5" d="M800.4,182.9c-0.6,4.5-1.5,9.7-3.5,10c-1,0.1-1.8-1-4.2-3.8c-5.2-6.2-7.8-9.3-9.3-8.8
		c-1.5,0.4-2.5,3.7-1.8,6.2c0.8,3,3.7,4.5,3.3,5.2c-0.3,0.5-2.2-0.4-5.8-0.5c-1.3,0-2.8,0-3,0.5c-0.2,0.7,2,2.1,2.7,2.5
		c0,0,5,1,5.7,3s-2,0.3-4.3,1.5c-2.3,1.2-2.8,2.3-2.8,2.3l1.5,0.8c0,0,5.2-0.2,5.8,1c0.7,1.2,1.2,2,1.2,2s-4,1.7-5.5-0.7
		c0,0-2.2,3.8,4.2,4.3c0,0,5-2.7,4.7,0c-0.3,2.7-0.8,3.7-0.8,3.7s0.2,0.8-2.2,0.8c-2.3,0-2.3-4.7-2.3,0c0,4.7-2.7,5.7,1,5.8
		c3.7,0.2,5-0.8,5-0.8s-1.8,3.8,1,3.6c2.8-0.2,3-0.7,3.2,1.1c0.2,1.8,2.2,2.3,3.2,0c1-2.3,4.7-0.3,3.3-2.5c-1.3-2.2-3.3-4.7-1.2-3.2
		c2.2,1.5,1.7,3,4.3,0.8c2.7-2.2,4.5-2.2,3.3-4.8c-1.2-2.7-1.3-3.8-1.3-3.8s1.5,0.8-2-1.3s-6.5-2.2-3.5-2.2s3.8,2.8,6,1.3
		c2.2-1.5,2.2-1.5,2.2-1.5s0.2,0.3,0-2.7c-0.2-3-1.2-2.7-0.2-3s0.7,0.8,3-1.2c2.3-2,3-2.8,3-2.8s4.5-3,1.2-2.5
		c-3.3,0.5-3.7,0.2-4.3,0.2s-2.2-0.2-2.2-0.2s7.3-1.5,7.7-1.5s-1.1-3-3.2-2.4h-2.2l-4.2,1.6c0,0,6.6-7.5,5.3-7.8
		c-3-0.8-5.8-1.7-7.7,0.8c-1.8,2.5-2.8,4.7-3,4C801.6,187.9,800.6,181.2,800.4,182.9z"/>
	<path class="st8" d="M788.4,93.4c-1.5-0.2,0.3,2.3-4.3,3c-4.7,0.7-2.3-3.3-5.7,0s-3.5,1.2-3.5,1.2s1-6.8-0.7-2.8
		c-1.7,4,1,2.2-1.7,4c-2.7,1.8-2.7,1.8-2.7,1.8s-3.5,6.8-7.8,8.5c-4.3,1.7-18.2,2.3-21.2,4.2c-3,1.8-16.5,7.7-20,10.2
		s-6.7,2.3-10.2,3.3s-11.5,1.2-9.2,2.8c2.3,1.7,4.7,0.2,3.2,2.2s-1.5,2-1.5,2s-2,1.5,2.8,0c4.8-1.5,8.3-7.5,7.7-2.3
		c-0.7,5.2-1.7,5.3,1.7,6c3.3,0.7,1.2,1.8,5.5-0.8c4.3-2.7,3.5-5.5,6.2-4.1c2.7,1.4,2.7,2.2,2.7,2.2l-1,2.2c3,0.5,2,0.3,4.7-1
		c2.7-1.3,4.7-4.8,2.7-1.3s-0.4,2-0.4,2s-1.9,3.5,1.1,5.3c3,1.8,5.8,2.3,5.8,2.3l5.3-0.7l-2.2-1.5c0,0-1-1.4,0.8-4.8
		c1.7-3.4,1.7-3.4,1.7-3.4l2.8,5c0,0,1.2,0.3,1.2,1.5c0,1.2,0.8-0.5,2.3-1.8c1.5-1.3,0.2-0.5,3-2c2.8-1.5,1.5,2,2.8-1.5s0,0,0,0
		l1.3-3.5c0,0,0.8-5-2-7.5c-2.8-2.5-2.8-2.5-2.8-2.5l-1.7-3.8l3.2-2.2l4.7,1.2l3-1.2l3.2-1.3c0,0,0.2-0.8,1.8-1.5
		c1.7-0.7-0.8-0.8,1.7-0.7c2.5,0.2,2.7-0.8,2.7-0.8s-1-4.3,2.3-3.3c3.3,1,5.2-0.7,5.2-0.7s4.2,0.2,2.2-1.8s-1-4.7,1.8-4.8
		c2.8-0.2,7.7-1.5,7.7-1.5l6.2-2c0,0-3-0.7-7.5,0c-4.5,0.7,8.8-4.2,2.5-2.3c-6.3,1.8,4.2-7-1.7-2.8c-5.8,4.2,2.7-3.8-1.5-1.1
		C788.4,93.4,788.4,93.4,788.4,93.4z"/>
	<path class="st5" d="M760.9,108.7c0,0-7-9.3-1.5-15.3c0.7-0.7,1.3-1.4,1.8-2c3.9-4.1,4.7-4.5,4.7-4.5l3.2-0.7l4.7,1.2
		c0,0,1-4.2-4-4.7s4.8-4,5.8-5.5s3.8-3.5-1-2.3c-4.8,1.2,2.7-1.7,2.7-1.7s6.1-2.3,2.1-1.5c-4,0.8-8.4,1.5-10.4-1.2
		c-2-2.7,0.5-0.2-3.5,0c-4,0.2-4.2-0.2-4.3,2.2c-0.2,2.3-6.2-4.5-7.3-8.2c-1.2-3.7-1.2-3.7-1.2-3.7s-1.7,7.7-1,13.3
		c0.7,5.7,0.7,3.7-2.2,2c-2.8-1.7,0-1.2-3.7-1.3s-3.2,0.8-5.3-2.3c-2.2-3.2-2.7-4-2.5-2.2c0.2,1.8,0.3,5.5,5.8,7.5s5.8,2.8,5.8,2.8
		s5.5,0,0.5,2.2s-5,2.2-5,2.2s4.2,1.5-0.2,1c-4.3-0.5-8.5-5.3-5.3,0c3.2,5.3,4.2,5.9,4.2,7.3s0.3,2.5,0.3,2.5s2.7,3.3-2.7,1.3
		c-5.3-2-5.9-3-5.9-3l-1.8-0.8c0,0-0.8,0.8-5.5,0c-4.7-0.8-8.3-0.7-9.6-3.2s-3.6-5.5-2.6-2.3s0.3,5.7,2.6,6.5s-0.7,0,2.3,0.8
		c3,0.8-6.3-2.3,0,0c6.3,2.3,6.3,2.3,6.3,2.3l0.8,0.8c0,0,6.8,1.5,1.2,1.7c-5.7,0.2,6.5,0.2-1.5,0.2s-7-0.2-7-0.2s-11.7-0.7-7.2,0.8
		s6.2,2.2,6.2,2.2s2.7-1.2,4.3-1.2c1.7,0,1.7,0,1.7,0s5.3-0.2,5,1.5s-2,2.3-2,2.3s-1.8,1.8-6.7,1.8c-4.8,0-3.4,0-3.4,0
		s-12.4,0.5-15.1-0.7c-2.7-1.2-1.2,3.7,1.8,3.7c0.8,0,1.4,0.1,1.8,0.1c1.3,0.3,1,0.9-2,1.4c-4,0.7-4.3,1.8-4.3,1.8
		s17.6-5.7,22.4-1.5c4.8,4.2,6.2,4,6.8,4.8s2.5,0,2.5,0s9.1-4.5,9.7-4.7c0.6-0.2,9.5-1.6,9.5-1.6l1.6-0.2L760.9,108.7z"/>
	<path class="st2" d="M769.9,100.6v-7.2c0,0-1.5-0.2-3,3.6s-0.8,0.7-1.3-2.1s-0.2-4.7-2-3.3c-1.8,1.3-2.7-1.5-1.8,1.3
		c0.8,2.8,2,2.8,1,5.2c-1,2.3-1,3.2-2.2,0.7c-1.2-2.5-1-3.9-2-2.9c-1,1-1.3,3.2-1.3,3.2s1.8,8.3,3.6,9.7
		C762.7,110.1,769.9,100.6,769.9,100.6z"/>
	<path class="st2" d="M739.5,74.9c0,0-2.1,6-3.9,2.7c-1.8-3.3-2.6-7.5-2.8-5.2s-2.8,3.5,0,4.3c2.8,0.8,0.8,1-2.3,1.8
		c-3.2,0.8-2.8,0,2.7,2s6.5,0.5,2.4,2s-8.4,2.7-4.4,2.5c4-0.2,8.3,2.8,8.3,2.8s-1-4.5-0.6-4.3c0.4,0.2,5,2.2,5,2.2l7.1-3.2
		c0,0,3.6-1,1.2-1.4c-2.4-0.4-3.4-0.1-7.2-1.3S739.5,74.9,739.5,74.9z"/>
	<path class="st6" d="M791.6,150.1c0.3-0.7,4.5-0.8,3.7-8.5c-0.8-7.7-1.8-11-1.8-11s-0.3-4.5,1.9-3.7s5.6-1.8,7.1-1.3s6.2,0,6.7-1.3
		c0.5-1.3,0.7-2.8,1-3.7c0.3-0.8,1.7-6.5-1.3-3.3s-4.3,3.7-4.2,2c0.2-1.7,3.2-7.7,1-5c-2.2,2.7-2-2-3,0.7s0.2-2-1.5,0
		c-1.7,2,0.5,0.8-2,0.3s-3.5-0.8-2.8-4.3s5.2-4,0-5.3c-5.2-1.3-3.7-1.5-6.2,0s-3.5,0.2-2.2-1.1c1.3-1.3,4-3.8,1.3-1.3
		c-2.7,2.5-3.7,3.3-3.7,3.3s-1-1,0,2.3s5.1,9.2,0.3,4.2c-4.7-5-6-5.7-6-5.7s-1.2-1.2,0,1.5c1.2,2.7,8.9,4.2,0.9,3.7
		c-8-0.5-10.9-2.7-8-0.5c2.8,2.2,0.7-3.5,2.8,2.2c2.2,5.7,3.8,4.8,2.2,5.7c-1.7,0.8,2,5.3-3.7,0c-5.7-5.3-6.5-5-6.5-5
		s-2.2,1.4,0,2.3c2.2,0.8-4.5-0.5-4.5-0.5c1.5,3.3-1.8,0-1.5,2.2c0.3,2.2,0.7,3,0.7,3c-3.8-1-5.3-1.7-2,1.2c3.3,2.8,5,4.5,5,4.5
		s-3.3,0.6-3.4,3.3c-0.1,2.7-0.9,3-0.9,5s0,3,0,3s2.2-1.8-1.8,2.7s-7.5,5-6.7,8.5s0.5,4.2,3.5,2.3c3-1.8,3-1.8,3-1.8l1.8-0.8
		l2.9,0.2c0,0,9.6-3.5,2,0.5c-7.7,4-10.9,5.6-10.9,5.6s-4.1,5.6,5.5,0.9c0,0-5.3,4-2,3.7c3.3-0.3,9-8.5,9.3-8c0.3,0.5,1,0.7-2.5,4.2
		s-7.5,4-7.8,6.5s2.6,5.7,2.6,5.7s1-7.5,1.5-2.3c0.5,5.2,1.5,3.8,0.5,5.2s-1,1.3-1,1.3s1-0.2,4,0c3,0.2,3.5,0.3,5-1.2s2.3-4,4.2-4.5
		c1.8-0.5,2.7-1.2,2.8,0.5c0.2,1.7,1.2,1.8,2.7,0.5c1.5-1.3,1.2-2.5,1.2-2.5s-2.4-5.8,2.3-1.8c0,0,1.7,0,1.8,0s-0.7-3-0.7-3l0.2-3
		c0,0-2.3-6.8,0.3-4.7c2.7,2.2,3.3,3.3,4.2,2.3s0.7,1.2,0.8-1c0.2-2.2,0.2-2.2,0.2-2.2L791.6,150.1z"/>
	<path class="st6" d="M802.8,218.3c-0.5,0.3,2.1-0.7,3.2,0.8s3.6,0,0.5,2.4c-3.1,2.4-6.1,3.4-8.1,6s-1.4,4-2,4.9s-0.6,0.9-0.6,0.9
		s0.9,0.2,2.8-0.9s2.9-2.6,3.4-0.1s2.9,1,2.9,1s-0.5-0.5,2.1-3.6s5.2-7.6,3.2-3.6c-2,4-2.6,5.5-2.5,6.6s-2.6,3,0.4,1.8
		s3.8,0.2,4.1-0.8s-0.2-0.7,1-1.8s2.4-4.2,2-0.8s-1.7,2.5,1.5,2.9s3.8,0.9,3.8,0.9h4.6l1.4-2.2c0,0,2.9,0.8,0-1.5s-4.2-2.2-2.6-3.9
		s2,0,0.5-2.2s-5.2-5-0.8-3.5c4.5,1.5,5,1.5,5.8,1.6s0.8,4.5,1.8-0.8s2.1-5.5,0.9-5.9c-0.9-0.3-6.6-3.9-9.7-6
		c-1.3-0.8-2.1-1.4-2.1-1.4s-1.9-1.5,1.2,0s1.1,3.8,3.1,1.5s4.1,2.6,2.1-1.1s3.5-3.5-3.6-5.1s-8.8-2.2-8.8-2.2s-0.8,0.8-1.1-0.4
		s-0.2-1.2-0.2-1.2s-0.5-0.9-1.4-1.1c-0.9-0.3-3.7-2-2.2,0.4c1.5,2.5-0.8,3-0.8,3l0.1,1.9c0,0,2,0.5,0.6,2.2s-2.8,1-2.2,2.5
		s0.9,3.4,0.9,3.4c-0.4,2.1-1.3,3.1-1.3,3.1L802.8,218.3z"/>
	<path class="st7" d="M856,125.5c0.5-0.5,24.2-15.4,25.2-19.4s0-3.1,0-3.1s2.9-0.2-4.1,3.8s-17.2,11.5-17.2,11.5s-4.5,3.6-7.1,5.9
		s-4.8,2.4-5.5,5.2s-1.9,2.5-3.1,2.4s-1.8,2-3.1-1.5s-1.8-7.4,0-9.6s0.2-0.9-5.1-5.8s-6.9-3.9-8.2-6s-2.1-2.6-2.1-2.6s1,0.6,0.8,0.5
		c-0.3-0.1-0.3-0.1-0.3-0.1s-0.5-8.2,0,0c0.5,8.2,2.5,8.2,0.5,8.2s1.6,3.8-2.5-0.9s-5.1-5.1-6-5.6s-3.5-3.4-2.2-0.8s2.2,4.6,2.2,4.6
		s2.9,3.1,3.8,5s2.2,0.9,0.9,1.9s0.2,2-3.4,0.1s-4.6-2-4.6-2s-9.5-1,6,4.8c0,0,4.5,0.9,3.5,3.2s-9.6,0-11.2,2.4c0,0-3.1,1.2,3.6,1
		s12.8-1.5,14.5,2.9c0,0,2.4,1.1-1.2,0.8c-3.6-0.3-5.8-2.5-7.9-2.5s-3.6,0.2-2.6,1s2.5,0.9,2.6,1.6c0.1,0.7,1.1,0.3-1.6,0
		c-2.8-0.3-5.4-0.3-6.9,0.4c-1.5,0.7-1.5,0.7-1.5,0.7s-1.5,1.5-1.8,2s1.1,0,1.1,0s-3.5,0.6,1.9,0.2c5.4-0.3,7.8-2.9,8,0.1
		c0.2,3,0.1,3.7,0.1,3.7s-1.5,2,1.8,0s5.1-3.5,6.5-3.8s2.8-0.6,2.8-0.6s0.5-1.6,1.1,0s3.6-0.4,0.6,1.6s-2.8,2.3-5.4,3.6
		s-12.9,7.6-11.4,11.2s0.6,1,2.5,0.6s1.5-0.1,3.2-2.5s0-2.2,2.4-3.2s2.2,0.4,4.1-1.4s11.2-12.4,5.1-4.6s-8.2,10-8.2,10
		s-1.4,0.9-2.1,1.5s-7.4,0.9-2.9,1.5s5.8,0,5.8,0l1.2-1.4l6.9-7.8l1.5-1.8c0,0,8.6-10.2,3.4-3s-6.8,10.5-6.8,10.5s-0.6-0.8-2.6,3.7
		c-2,4.5-2.5,6-2.5,6s1.6-0.6,2.6,1.4s-0.1,11,2.8,4.1s4.1-7.2,4.2-9.2s8.8-14.6,8.8-14.6s1.4-8.6,1.2-3.6c-0.1,5.1,0,6.6,0,6.6
		s-3.7-2.1-1.9,5.2s3.5,7.5,3.5,7.5l1.2-0.5l1-1.9c0,0-1.6-1.2,0.2-3s0.2-1.4,0.2-1.4s-2.8-11.2,0.6-2.9s3,5.2,3.4,7.8
		s-3.9,2.5,0.4,2.5s4.9-1.5,7.4-3s3.9-1.4,3.9-1.4s-0.5-0.2,0.8-2s-3.8-0.6,1.2-1.8s5-3.4,5-3.4s-0.9-2-1.8-4.9s-6.5-4.8-2.6-3.6
		c3.9,1.2,6.1,2.1,7.6,2.2s1,1.1,3.7,0.6s6,0,2-3.6s-3.2-5-6.9-5.1s-1.9,0.4-7.1,1.2s-3.8-1.1-3.8-1.1s14.8-3.4,17.8-7.5
		s6.3-4.9,1.8-4c-4.5,0.9,6.9-1.8-3.8,1.4s-15.8,6-15.8,6l-3.1,0.9l-2.6,0.1c0,0,2.2-1.6,8.2-5.6s6-2.8,9.2-5.9s8.1-5.1,4-4
		s-1-2.5-4.9,0.1s0,0.2-3,2.2s0.5,0.6-5.8,3.2c-6.2,2.6-5.2,4.2-8.1,5.8S856,125.5,856,125.5z"/>
	<path class="st6" d="M812.3,85c0.2-0.8,20.2-18.8,19.5-17.5s-0.5-3.4-4.8-0.1s-5.2,1.8-7.5,5.3s1.2,0.2,2.2-3.5s2.2-7.8,5.2-10.5
		s8.2-5.2,3.5-4.2s-3.5,4.6-4.2-0.2s-0.8-4.8-0.8-4.8s1-2-1.2,0s-1.8-2-4.8,3.2s2.8-4.1,2.8-4.1l2.9-3.4c0,0,2-0.2,3.8-3.5
		s4.8-8.8,1-5s-2.5,2.2-2.8,0.8s0.5-3.8,0.5-3.8c-3.2,1.8,3.8-7.3-3.8,0s-7.5,7.2-8.2,8.8s-1.5,3-0.8,1.5s-0.8-6.2-5-10.8
		s-4.2-10.8-4.2-4.5s0.8,4.8,1.2,7.3s-3.5,0.8-1.2,2.8s3-0.5,2.2,2s3.5,7-0.8,2.5s-5-7.5-7.8-10.5s-2-5.5-2.8-3s-0.5,3.5,0,5.5
		s-4.7,1-0.5,4.5c4.2,3.5,3,0.8,4.2,3.5s2.8,3.5,3.5,5s-0.5-1,0.8,1.5s1.2,2.5,1.2,2.5s-0.2,2.9-0.5,3.3s9.5,5.7-0.2,0.4
		s-18.8-13.8-18.8-13.8s18.2,15.3,19.2,18.7c1,3.3,6,5.1,1,3.3s-5-1.8-5-1.8s-5.5-3.9-8.5-6.9s-6.8-7.6-6.8-7.6
		c-2.5-2-3.2-3.2,0,2.2s6.2,4.5,3.2,5.5s-3,1-3,1s-0.8-0.2,3,1.8s3.2-1,3.8,2s-2.2-1,0.5,3s7.8,4.7,6.7,8.2
		c-1.2,3.5,0.1,5.5-2.4,3.3s-7-12.9-11.8-14.1c-4.8-1.2-5.2-0.9-5.1-2.9c0.1-2,1.9,6,1.9,6s-0.2,2,4.8,5.2s5.5,4.2,6.8,5
		s4.5,2.8,3,3s-9-2.5-12.2-5.5s-6.5-4.7-6.8-3.7s3,4.5,4.2,5.8s4,2,4.8,3.5s-3.2,0.7-4,2.6s-2,0.1,2.8,0s10.5,2.4,12.5,3.2
		s2,0.8,2,0.8s4,1.5,6,2.5S812.3,85,812.3,85z"/>
	<path class="st2" d="M818.8,107.2c-2.1,0.2-5.2-1.7-4-4.3c1.2-2.7,0.5-9.2,4-5.9s2.9,0.6,5,5.2c2.1,4.5-1,5.8,0,7.1s1.9-2.2,1,1.2
		S824,114,824,114L818.8,107.2z"/>
	<path class="st7" d="M848.9,94.5c-0.1-1,4.4-13,10.4-14.2s7.2-1.8,11.5-3s5.5-1.5,5.5-1.5s2.2-0.2,7.8,0s12,1.8,17-0.1
		c5-1.9,6-1.1,7.2-2.1s2.5-4.2,0-3.5s15-10,11-7.8s-19.2,10.8-17.8,8.5s6.5-4.6,8.2-8.8c1.8-4.2,0.2-4.7-0.5-3.9s1.2-0.2-1.5,2
		s-12.2,7.8-14,8.5s8.8-8.3,10-10.8c1.2-2.5,2.5-4.9,1.2-2.5s-1.8-0.2-7.2,2.5s-6.8,5.5-7.8,5.5s-1-5.8-3.8-1.5s-4.8,6.5-6,8
		s-2.8,4-3.2,2s-1.8-2.2,1-5.8s8-9.7,8-9.7c-4.8,5.8-9,3.7-11.5,6.9s-2.8,2.8-3.8,4.5s-5,4.5-2.5,2.2s0.5-3.8,1.2-6.8
		c0.1-0.5,0.3-1.1,0.6-1.7c1.2-3,3.2-6.6,1.9-5.2c-1.5,1.7-5.8,14.4-5.5,9.7s1-14.5-0.2-8.5s-2,7.8-2.5,8.5s-2.8-0.5-2.8-0.5v-2.2
		c0,0-2-0.8-3,1.5s0.2,3.5-1,2.2s-2.2-1.8-2.2-3.5s0-1.8,0-1.8s-0.5-0.5-1.5-0.5s-0.8-1.5-0.8-3s0-3,0-3s0,1-0.2-2.2
		s-0.2-8.8-0.2-8.8c0,5.5-4.2,11-4.8,10s0-6.5,0-6.5s-0.4-5-0.2-2.5s-2,3.5-2.5,5.2s-2.2,0-2.2-2.2s1.8-14.2,0-2.2
		s-1.5,14.5-1.5,14.5c-3.5-4.8-1.5-5-3.5-4.8s-4.5-4.8-2,0.2s2.8,6.8,2.8,6.8s-7.6-1-3.8-0.5s-0.2,5,2.3,5.4s1.2-6.1,7,2.1
		s2.8,16.8,2.8,16.8l-1,3.7L848.9,94.5z"/>
	<path class="st5" d="M834.8,114c3.5,2.9-0.3-6.5,2.2-5c1.8,1.1-1-3-2.7-5.3c-0.7-0.9-1.1-1.5-1.1-1.5s7.4,7.4,8.1,2.9l-4.1-8.9
		c0,0,3.6,7,5.6,6.1s2.5-9.9,2.5-9.9s3,9,3.6,7.8c0.6-1.2,2.9-5.5,2.9-5.5c2.5,10.2,6.5,9.6,8,7.7s6.8-6.9,7.5-6.1
		c0.8,0.9,8,0.1,9.2-5.9s0.3-5.5,2.5-5.7s4.8-4,3.5,2c-1.2,6-1.1,3.2,0.3,5.2s3.9,3.5,2.7,2.8s6.2-1,1.2,0.8s-5.8,3.6-5.8,3.6
		c-4.2,4.7-4.5,6.2-4.5,6.2s-11.5,2.4-5.7,1.2c5.7-1.2,3.5,2.1,3.5,2.1l-25.4,18.3c0,0-0.6-2.7-4.1-1.2s-3.5,1.5-3.5,1.5
		s2.1-4.3,0.5-5.2C837.3,119,834.8,114,834.8,114z"/>
	<path class="st6" d="M847,83.1c0,0-0.9-1.4-3.2,0s-1,3.4-3.5,3.4c-2.5,0-0.2-3-3.2-2c-3,1-4.2,1.2-4.6,3.7
		c-0.4,2.5-5.7,2.5-0.4,2.5s6.3,0,6.3,0c-1.1,5.4-0.1,1,0.9,3.8s0.5,5.5,3.2,1.6c2.8-3.9-3.8-6.1,2.8-3.9s6.8,2.5,9.2,1
		s0.8-0.8,6.5-1.2s7-1,8.2-3.2s5.2-7.8,5.2-7.8s4-4.8,0-3s-7.2,5.7-8.8,5.1s-6.5-2.9-6.5-2.9s-3.8,3.3-6.9,6.3
		C849.3,89.5,847,83.1,847,83.1z"/>
	<path class="st5" d="M841.3,53.8c0,0-2.2-8.6-6-7.1s-2.8,1.4-4-0.2c-1.2-1.6-2.2-4.8-2.2-4.8h4.1c0,0,3.9-2-0.7-5
		c-4.7-3,2.3-12,2.7-10.6c0.4,1.4,1.6,1.9,4.9,7.4s2,7.5,3.2,5.5s-0.2-2.2,0-6s-3.5-6,0.2-3.8s3,2.8,5.4,5.5c2.4,2.8,4.4,3,6.9,2.2
		s2-1.8,3.8-0.8s1.8,1,1.8,1s0.5,1.8,1.2,4.5s2.8-2,2.8-4.8s-2.5-1.5,0-2.8s3.5-4,4.2-3.5s1-3,1.8,1.8s-0.5,3.8,0.8,4.8
		s0.5,2.5,2.5-2s2-6.3,2-6.3l2.5-0.2c0,0,2.5,0.7,2.8-2.8s-2.5-6,0.2-3.5s3.5,2.2,4.8,1.5s5.8-10.2,5-5.8s-2,7.9-2,7.9
		s0.3,1.1-2,3.4c-2.3,2.2-2.3,2.2-2.3,2.2s1.9,5.3,6.3-1s3.9-9.2,5.4-8.5s2.5,3.8,3.2-0.5s2.2-12.8,0.8-4.2s-4.5,10.2-1.5,8.5
		s11.2-9.5,8.8-7.8s2,0.7-3.2,7.9s-11,9.4-12.8,9.9s2-5.3-4.7,1.5c-6.8,6.8,8.2,7.2,8.2,7.2s-3.5,2.5-5.5,1.2c-2-1.2-7.2,2-10,2
		s-5.2,1-6.2,1.5s-1,0.5-1,0.5s1.2-1-3,1.2s1.5-1.1-1.3,2.6c-2.7,3.7-7,0-7,0s-0.2-0.7-2.5,1.6s-1.5,0.9-1.5,0.9
		c-3.2,5.4-2.5,2.9-2.5,2.9c-2.2,2-2.8,4.8-6.6,1.8c-3.9-3-2.1-2.2-4.9-4.7C841.3,53.8,841.3,53.8,841.3,53.8z"/>
	<path class="st6" d="M879.1,102.9c0.8,0.3,4.3-0.6,8.8,0c4.5,0.6,4.5,2.5,7.2-0.2s3-1.4,5-4.7c2-3.3,2.2-2,5.2-5.8s6.2-8.5,6.2-9.1
		s-1.2-0.4-5,3.4c-3.8,3.7-5.2,4.7-7,5.2s-4.8,1-4.2-0.5s-2.8,0.1,0-3.4c2.8-3.6,2.5-3.8,3-5c0.5-1.1,11-8.9,1.2-2.4
		s-12.7,7.3-11.7,6c1-1.3,1.2-4.5,0.7-4.8c-0.5-0.2,5-5.3-0.5-0.2c-5.5,5-5.5,5-5.5,5l0.3,5.2L879.1,102.9z"/>
</g>
</svg>
